<svg width="18" height="22" viewBox="0 0 18 22" fill="none" xmlns="http://www.w3.org/2000/svg">
<g clip-path="url(#clip0)">
<path d="M16 11.03C16 10.4777 16.4477 10.03 17 10.03C17.5523 10.03 18 10.4777 18 11.03V19C18 20.6569 16.6569 22 15 22H3C1.34315 22 0 20.6569 0 19L0 3C0 1.34315 1.34315 0 3 0L11.5316 0C12.1252 0 12.6881 0.263646 13.0681 0.719631L17.7682 6.35982C18.1218 6.78409 18.0645 7.41466 17.6402 7.76822C17.2159 8.12179 16.5853 8.06446 16.2318 7.64018L11.5316 2H3C2.44772 2 2 2.44772 2 3V19C2 19.5523 2.44772 20 3 20H15C15.5523 20 16 19.5523 16 19V11.03Z" fill="#0E1B47"/>
<path d="M11 2C10.4477 2 10 1.55228 10 1C10 0.447715 10.4477 0 11 0C12.1046 0 13 0.89543 13 2V6H17C17.5523 6 18 6.44772 18 7C18 7.55228 17.5523 8 17 8H13C11.8954 8 11 7.10457 11 6V2Z" fill="#0E1B47"/>
<path d="M5 7C4.44772 7 4 6.55228 4 6C4 5.44772 4.44772 5 5 5H8C8.55228 5 9 5.44772 9 6C9 6.55228 8.55228 7 8 7H5Z" fill="#0052CC"/>
<path d="M5 12C4.44772 12 4 11.5523 4 11C4 10.4477 4.44772 10 5 10H13C13.5523 10 14 10.4477 14 11C14 11.5523 13.5523 12 13 12H5Z" fill="#0052CC"/>
<path d="M5 17C4.44772 17 4 16.5523 4 16C4 15.4477 4.44772 15 5 15H13C13.5523 15 14 15.4477 14 16C14 16.5523 13.5523 17 13 17H5Z" fill="#0052CC"/>
</g>
<defs>
<clipPath id="clip0">
<rect width="18" height="22" fill="white"/>
</clipPath>
</defs>
</svg>
