<svg width="96" height="96" viewBox="0 0 96 96" fill="none" xmlns="http://www.w3.org/2000/svg">
<path fill-rule="evenodd" clip-rule="evenodd" d="M48 84C67.8824 84 84 67.8824 84 48C84 28.1178 67.8824 12 48 12C28.1178 12 12 28.1178 12 48C12 67.8824 28.1178 84 48 84ZM59.2221 73.6605C68.4913 69.6013 75.1389 60.6669 75.9225 50.1001C72.6309 51.8953 68.4801 53.3673 63.7485 54.3921C63.1529 61.8705 61.5309 68.5485 59.2221 73.6605ZM36.7779 22.3394C28.9889 25.7505 23.0509 32.6041 20.8882 40.9759C21.8147 41.8551 23.3924 42.9363 25.7932 44.0031C27.5885 44.8011 29.682 45.5191 32.0214 46.1187C32.234 36.8232 34.0139 28.4595 36.7779 22.3394ZM40.4024 55.6431C41.0292 61.4699 42.3408 66.4807 43.9968 70.2067C45.1728 72.8531 46.3664 74.4991 47.2872 75.3755C47.6148 75.6875 47.8516 75.8535 48 75.9391C48.1484 75.8535 48.3852 75.6875 48.7128 75.3755C49.6336 74.4991 50.8272 72.8531 52.0032 70.2067C53.6592 66.4807 54.9708 61.4699 55.5976 55.6431C53.1484 55.8767 50.6064 55.9999 48 55.9999C45.3936 55.9999 42.8516 55.8767 40.4024 55.6431ZM32.2515 54.3921C32.8471 61.8705 34.4692 68.5485 36.7781 73.6605C27.5089 69.6013 20.8611 60.6665 20.0776 50.1001C23.3693 51.8953 27.5201 53.3673 32.2515 54.3921ZM55.9986 47.5583C53.4758 47.8435 50.797 47.9999 47.9998 47.9999C45.203 47.9999 42.5238 47.8435 40.001 47.5583C40.0538 38.6562 41.6914 30.9801 43.9966 25.7932C45.1726 23.1468 46.3662 21.5006 47.287 20.6241C47.6146 20.3124 47.8514 20.1463 47.9998 20.0606C48.1482 20.1463 48.385 20.3124 48.7126 20.6241C49.6334 21.5006 50.827 23.1468 52.003 25.7932C54.3082 30.9801 55.9458 38.6562 55.9986 47.5583ZM63.9785 46.1187C63.7661 36.8232 61.9861 28.4595 59.2221 22.3394C67.0113 25.7505 72.9493 32.6042 75.1117 40.9759C74.1853 41.8551 72.6077 42.9363 70.2069 44.0031C68.4117 44.8011 66.3181 45.5191 63.9785 46.1187Z" fill="white"/>
</svg>
