<svg width="609" height="609" viewBox="0 0 609 609" fill="none" xmlns="http://www.w3.org/2000/svg">
<g opacity="0.1" clip-path="url(#clip0)">
<path d="M198.663 105.631C89.1167 163.878 47.3842 300.379 105.631 409.925C163.878 519.472 300.379 561.204 409.925 502.958C519.472 444.711 561.204 308.21 502.958 198.663C444.711 89.1168 308.21 47.3842 198.663 105.631ZM392.32 469.847C301.034 518.384 187.279 483.606 138.742 392.32C90.2044 301.034 124.983 187.279 216.269 138.742C307.554 90.2044 421.309 124.983 469.847 216.269C518.384 307.554 483.606 421.309 392.32 469.847Z" fill="url(#paint0_linear)"/>
<path d="M336.863 375.53C326.149 381.461 322.071 394.799 327.637 405.707C327.797 406.047 327.982 406.394 328.174 406.716C334.338 417.391 347.968 421.058 358.651 414.911L357.989 415.263C368.818 409.271 372.857 395.699 367.039 384.756C361.043 374.12 347.781 370.065 336.863 375.53Z" fill="url(#paint1_linear)"/>
<path d="M246.482 196.364C222.769 208.081 205.115 229.274 197.868 254.704C197.246 258.049 197.811 261.508 199.454 264.478C203.437 271.768 212.442 274.646 219.917 271.011C223.336 269.214 225.97 266.221 227.34 262.605C231.944 246.502 242.953 232.982 257.773 225.188C280.123 213.304 297.31 219.667 304.88 233.905C321.077 264.367 268.966 296.959 290.004 336.526C295.109 346.128 310.488 360.674 322.905 354.072C323.004 354.019 323.12 353.957 323.236 353.896C329.907 350.348 332.443 342.056 328.895 335.385C326.519 330.915 321.349 328.779 318.972 324.309C303.127 294.51 359.201 259.386 335.966 212.493C321.001 184.349 285.718 175.502 246.482 196.364Z" fill="url(#paint2_linear)"/>
</g>
<defs>
<linearGradient id="paint0_linear" x1="-7.45292" y1="420.473" x2="419.498" y2="650.255" gradientUnits="userSpaceOnUse">
<stop stop-color="#3D8AFC"/>
<stop offset="1" stop-color="#3D1FF8"/>
</linearGradient>
<linearGradient id="paint1_linear" x1="316.481" y1="406.898" x2="359.166" y2="429.66" gradientUnits="userSpaceOnUse">
<stop stop-color="#3D8AFC"/>
<stop offset="1" stop-color="#3D1FF8"/>
</linearGradient>
<linearGradient id="paint2_linear" x1="184.878" y1="308.968" x2="347.316" y2="378.318" gradientUnits="userSpaceOnUse">
<stop stop-color="#3D8AFC"/>
<stop offset="1" stop-color="#3D1FF8"/>
</linearGradient>
<clipPath id="clip0">
<rect width="450" height="450" fill="white" transform="translate(0 211.262) rotate(-28)"/>
</clipPath>
</defs>
</svg>
