<svg width="96" height="96" viewBox="0 0 96 96" fill="none" xmlns="http://www.w3.org/2000/svg">
<path fill-rule="evenodd" clip-rule="evenodd" d="M44 28C44 36.8366 36.8364 44 28 44C19.1634 44 12 36.8366 12 28C12 19.1634 19.1634 12 28 12C36.8364 12 44 19.1634 44 28ZM36 28C36 32.4183 32.4184 36 28 36C23.5816 36 20 32.4183 20 28C20 23.5817 23.5816 20 28 20C32.4184 20 36 23.5817 36 28ZM68 44C76.8364 44 84 36.8366 84 28C84 19.1634 76.8364 12 68 12C59.1634 12 52 19.1634 52 28C52 36.8366 59.1634 44 68 44ZM68 36C72.4184 36 76 32.4183 76 28C76 23.5817 72.4184 20 68 20C63.5816 20 60 23.5817 60 28C60 32.4183 63.5816 36 68 36ZM80 56C82.2092 56 84 57.7908 84 60V84H92V60C92 53.3724 86.6276 48 80 48H60L64 56H80ZM40 56C42.2092 56 44 57.7908 44 60V84H52V60C52 53.3724 46.6276 48 40 48H16C9.3726 48 4 53.3724 4 60V84H12V60C12 57.7908 13.7909 56 16 56H40Z" fill="white"/>
</svg>
