<svg width="96" height="96" viewBox="0 0 96 96" fill="none" xmlns="http://www.w3.org/2000/svg">
<path fill-rule="evenodd" clip-rule="evenodd" d="M28 16V20H16C9.37256 20 4 25.3726 4 32V72C4 78.6276 9.37256 84 16 84H80C86.6276 84 92 78.6276 92 72V32C92 25.3726 86.6276 20 80 20H68V16C68 11.5818 64.4184 8 60 8H36C31.5816 8 28 11.5818 28 16ZM60 16H36V20H60V16ZM12 32C12 29.7908 13.791 28 16 28H80C82.2088 28 84 29.7908 84 32V56H12V32ZM12 64V72C12 74.2092 13.791 76 16 76H80C82.2088 76 84 74.2092 84 72V64H12ZM40 44H56V52H40V44Z" fill="white"/>
</svg>
