<svg width="16" height="16" viewBox="0 0 16 16" fill="none" xmlns="http://www.w3.org/2000/svg">
<path fill-rule="evenodd" clip-rule="evenodd" d="M11.5968 10.6507C13.2346 8.54727 13.0867 5.50408 11.153 3.5704C9.05915 1.47653 5.66428 1.47653 3.57041 3.5704C1.47653 5.66428 1.47653 9.05911 3.57041 11.153C5.50409 13.0867 8.54731 13.2346 10.6508 11.5968C10.6598 11.6071 10.6693 11.6171 10.6791 11.6269L13.5226 14.4703C13.7843 14.7321 14.2087 14.7321 14.4704 14.4703C14.7321 14.2086 14.7321 13.7843 14.4704 13.5225L11.6269 10.6791C11.6171 10.6693 11.607 10.6598 11.5968 10.6507ZM10.1617 4.50491C11.7239 6.06701 11.7239 8.59965 10.1617 10.1618C8.59967 11.7239 6.067 11.7239 4.50491 10.1618C2.94281 8.59965 2.94281 6.06701 4.50491 4.50491C6.067 2.94281 8.59967 2.94281 10.1617 4.50491Z" fill="white"/>
</svg>
