<svg width="459" height="400" viewBox="0 0 459 400" fill="none" xmlns="http://www.w3.org/2000/svg">
<path d="M351.624 1.73706C406.884 9.17511 473.584 74.541 411.29 168.446C411.29 168.446 374.868 236.885 369.168 332.932C363.468 429.021 -11.1833 435.569 0.25674 261.422C3.04601 218.977 11.6564 162.261 98.528 119.735C185.4 77.209 152.05 77.0473 183.176 42.0804C207.148 15.1579 291.513 -6.3882 351.624 1.73706Z" fill="#B1E5FE"/>
<path d="M391.967 101.585C412.551 101.585 429.238 84.898 429.238 64.3137C429.238 43.7295 412.551 27.0425 391.967 27.0425C371.383 27.0425 354.696 43.7295 354.696 64.3137C354.696 84.898 371.383 101.585 391.967 101.585Z" fill="url(#paint0_linear)"/>
<path d="M391.967 94.8745C408.845 94.8745 422.528 81.1921 422.528 64.3139C422.528 47.4357 408.845 33.7532 391.967 33.7532C375.089 33.7532 361.406 47.4357 361.406 64.3139C361.406 81.1921 375.089 94.8745 391.967 94.8745Z" fill="#0E1B47"/>
<path d="M389.744 84.8088V79.9579C386.591 79.8771 383.438 78.9473 381.619 77.7346L382.953 73.005C384.893 74.1773 387.723 75.2283 390.755 75.2283C393.908 75.2283 396.05 73.6922 396.05 71.2667C396.05 69.003 394.312 67.5477 390.593 66.2137C385.338 64.3137 381.902 61.8883 381.902 57.2395C381.902 52.9141 384.893 49.5993 389.987 48.71V43.7783H394.11V48.427C397.263 48.5079 399.406 49.2759 401.023 50.0844L399.689 54.6928C398.476 54.1269 396.293 52.995 392.857 52.995C389.34 52.995 388.087 54.8141 388.087 56.5119C388.087 58.5735 389.906 59.7054 394.15 61.4436C399.769 63.5457 402.276 66.254 402.276 70.7007C402.276 74.9452 399.325 78.7047 393.787 79.6345V84.8088H389.744V84.8088Z" fill="white"/>
<path d="M390.512 133.116H429.157C445.367 133.116 458.546 146.254 458.546 162.504V210.73H390.674L390.512 133.116Z" fill="#0E1B47"/>
<path d="M323.691 281.27H365.773C382.185 281.27 395.444 267.971 395.444 251.599V163.838C395.444 159.957 396.212 156.077 397.789 152.519C400.78 145.728 407.49 136.794 422.73 133.116H323.691V281.27Z" fill="url(#paint1_linear)"/>
<path d="M244.5 41.1101H298.669C317.466 41.1101 332.706 56.35 332.706 75.1473V250.103C332.706 253.863 333.474 257.541 335.01 260.977C338.203 268.132 345.722 278.036 363.388 281.311H244.662L244.5 41.1101Z" fill="#0E1B47"/>
<path d="M294.504 41.1506C294.504 41.1506 275.707 41.757 265.035 57.7245C261.033 63.7073 259.012 70.7411 259.012 77.9366V302.21C259.012 318.258 245.995 331.275 229.947 331.275H91.979V69.0837C91.979 53.5608 104.551 40.9889 120.074 41.0293L294.504 41.1506Z" fill="url(#paint2_linear)"/>
<path d="M198.174 276.905V302.655C198.174 309.85 200.882 316.803 205.854 321.978C209.856 326.141 215.92 329.901 225.015 331.275H57.1742C51.2319 331.275 45.3704 329.779 40.1961 326.828C35.709 324.241 30.9793 320.199 27.422 313.852C24.4306 308.516 22.9753 302.453 22.9753 296.349V276.864H198.174V276.905Z" fill="url(#paint3_linear)"/>
<path d="M175.86 135.298C175.86 138.047 173.636 140.271 170.888 140.271H118.579C115.83 140.271 113.606 138.047 113.606 135.298C113.606 132.55 115.83 130.326 118.579 130.326H170.888C173.636 130.326 175.86 132.55 175.86 135.298Z" fill="#0E1B47"/>
<path opacity="0.4" d="M237.911 165.132C237.911 167.88 235.688 170.104 232.939 170.104H118.579C115.83 170.104 113.606 167.88 113.606 165.132C113.606 162.383 115.83 160.159 118.579 160.159H232.939C235.688 160.159 237.911 162.383 237.911 165.132Z" fill="white"/>
<path opacity="0.4" d="M237.911 194.965C237.911 197.714 235.688 199.937 232.939 199.937H118.579C115.83 199.937 113.606 197.714 113.606 194.965C113.606 192.216 115.83 189.993 118.579 189.993H232.939C235.688 189.993 237.911 192.216 237.911 194.965Z" fill="white"/>
<path opacity="0.4" d="M237.911 224.798C237.911 227.546 235.688 229.77 232.939 229.77H118.579C115.83 229.77 113.606 227.546 113.606 224.798C113.606 222.049 115.83 219.825 118.579 219.825H232.939C235.688 219.825 237.911 222.049 237.911 224.798Z" fill="white"/>
<path d="M117.81 113.955H156.9C159.123 113.955 160.942 112.136 160.942 109.912V74.9857C160.942 72.7624 159.123 70.9433 156.9 70.9433H117.81C115.587 70.9433 113.768 72.7624 113.768 74.9857V109.912C113.768 112.136 115.587 113.955 117.81 113.955Z" fill="#0E1B47"/>
<path d="M135.476 109.67V105.587C132.808 105.506 130.181 104.738 128.645 103.727L129.776 99.7656C131.434 100.736 133.778 101.625 136.366 101.625C139.034 101.625 140.812 100.331 140.812 98.3103C140.812 96.4103 139.357 95.1976 136.204 94.0657C131.798 92.4488 128.928 90.4276 128.928 86.5469C128.928 82.9087 131.474 80.1598 135.719 79.3917V75.2685H139.155V79.1896C141.823 79.2705 143.601 79.9173 144.976 80.5641L143.844 84.4448C142.833 84.0001 140.974 83.0299 138.104 83.0299C135.153 83.0299 134.102 84.5661 134.102 85.9809C134.102 87.7191 135.638 88.6893 139.195 90.1042C143.925 91.8828 146.027 94.1466 146.027 97.906C146.027 101.504 143.561 104.657 138.912 105.385V109.71H135.476V109.67Z" fill="white"/>
<path d="M64.1681 265.424C90.4901 265.424 111.828 244.086 111.828 217.764C111.828 191.442 90.4901 170.104 64.1681 170.104C37.8462 170.104 16.5081 191.442 16.5081 217.764C16.5081 244.086 37.8462 265.424 64.1681 265.424Z" fill="url(#paint4_linear)"/>
<path d="M64.1682 256.814C85.7348 256.814 103.218 239.33 103.218 217.764C103.218 196.197 85.7348 178.714 64.1682 178.714C42.6016 178.714 25.1184 196.197 25.1184 217.764C25.1184 239.33 42.6016 256.814 64.1682 256.814Z" fill="#0E1B47"/>
<path d="M58.0232 233.651L43.3898 219.543C41.8536 218.047 41.8131 215.581 43.3088 214.045C44.8045 212.509 47.2704 212.468 48.8066 213.964L58.1446 222.979L79.5694 203.009C81.146 201.554 83.6119 201.635 85.0671 203.211C86.5224 204.788 86.4416 207.254 84.865 208.709L58.0232 233.651Z" fill="white"/>
<path d="M425.478 292.225C431.461 292.225 436.352 287.334 436.352 281.351C436.352 275.368 431.461 270.477 425.478 270.477C419.495 270.477 414.604 275.368 414.604 281.351C414.604 287.334 419.455 292.225 425.478 292.225ZM425.478 275.288C428.793 275.288 431.501 277.996 431.501 281.311C431.501 284.626 428.793 287.334 425.478 287.334C422.163 287.334 419.455 284.626 419.455 281.311C419.414 277.996 422.123 275.288 425.478 275.288Z" fill="#0E1B47"/>
<path d="M72.1313 15.0367H83.8139V4.1626H88.6648V15.0367H100.347V19.8472H88.6648V30.7213H83.8139V19.8472H72.1313V15.0367Z" fill="#0E1B47"/>
<defs>
<linearGradient id="paint0_linear" x1="337.336" y1="57.0621" x2="381.912" y2="123.873" gradientUnits="userSpaceOnUse">
<stop stop-color="#3D8AFC"/>
<stop offset="1" stop-color="#1F76F8"/>
</linearGradient>
<linearGradient id="paint1_linear" x1="300.626" y1="192.78" x2="396.576" y2="288.915" gradientUnits="userSpaceOnUse">
<stop stop-color="#57B1E4"/>
<stop offset="1" stop-color="#0052CC"/>
</linearGradient>
<linearGradient id="paint2_linear" x1="44.8135" y1="157.917" x2="232.598" y2="354.305" gradientUnits="userSpaceOnUse">
<stop stop-color="#57B1E4"/>
<stop offset="1" stop-color="#0052CC"/>
</linearGradient>
<linearGradient id="paint3_linear" x1="-24.0771" y1="298.776" x2="-11.8098" y2="367.049" gradientUnits="userSpaceOnUse">
<stop stop-color="#57B1E4"/>
<stop offset="1" stop-color="#0052CC"/>
</linearGradient>
<linearGradient id="paint4_linear" x1="-5.69077" y1="208.491" x2="51.3107" y2="293.925" gradientUnits="userSpaceOnUse">
<stop stop-color="#3D8AFC"/>
<stop offset="1" stop-color="#1F76F8"/>
</linearGradient>
</defs>
</svg>
