<svg width="400" height="446" viewBox="0 0 400 446" fill="none" xmlns="http://www.w3.org/2000/svg">
<path d="M398.539 156.383C391.484 84.3768 269.546 -73.7049 111.312 39.7874C75.4405 65.5039 53.4671 99.2116 43.4792 206.923C40.7166 236.805 25.4584 264.009 7.26763 316.505C-2.97531 346.004 -4.67539 416.565 52.4896 433.95C128.015 456.946 222.709 443.812 268.229 421.453C326.159 393.017 412.268 296.654 398.539 156.383Z" fill="#B1E5FE"/>
<path d="M51.3853 393.527L15.3863 211.556C13.5587 202.375 20.614 193.789 29.9644 193.789H277.453C284.55 193.789 290.671 198.804 292.031 205.775L328.03 387.746C329.857 396.927 322.802 405.513 313.452 405.513H65.9635C58.8657 405.513 52.7454 400.498 51.3853 393.527Z" fill="#0E1B47"/>
<path d="M82.7086 120.932H290.755C298.958 120.932 305.631 127.606 305.631 135.81V371.508C305.631 379.712 298.958 386.385 290.755 386.385H82.7086C74.5058 386.385 67.833 379.712 67.833 371.508V135.81C67.833 127.563 74.5058 120.932 82.7086 120.932Z" fill="url(#paint0_linear)"/>
<path d="M111.61 61.8482H319.657C327.86 61.8482 334.532 68.5218 334.532 76.7255V312.424C334.532 320.628 327.86 327.301 319.657 327.301H111.61C103.407 327.301 96.7346 320.628 96.7346 312.424V76.7255C96.7346 68.4793 103.407 61.8482 111.61 61.8482Z" fill="url(#paint1_linear)"/>
<path opacity="0.4" d="M125.168 153.45C125.168 157.488 128.441 160.718 132.436 160.718H300.021C304.058 160.718 307.289 157.445 307.289 153.45C307.289 149.412 304.016 146.181 300.021 146.181H132.436C128.441 146.181 125.168 149.412 125.168 153.45Z" fill="white"/>
<path opacity="0.4" d="M125.168 197.189C125.168 201.227 128.441 204.458 132.436 204.458H300.021C304.058 204.458 307.289 201.185 307.289 197.189C307.289 193.151 304.016 189.92 300.021 189.92H132.436C128.441 189.878 125.168 193.151 125.168 197.189Z" fill="white"/>
<path d="M125.168 109.711C125.168 113.749 128.441 116.979 132.436 116.979H184.671C188.708 116.979 191.939 113.706 191.939 109.711C191.939 105.672 188.666 102.442 184.671 102.442H132.436C128.441 102.442 125.168 105.715 125.168 109.711Z" fill="#0E1B47"/>
<path d="M58.3553 384.898L117.093 240.035C119.388 234.425 124.828 230.727 130.863 230.727H376.566C387.107 230.727 394.332 241.396 390.337 251.172L331.6 396.034C329.304 401.645 323.864 405.343 317.829 405.343H72.1259C61.5854 405.343 54.4026 394.674 58.3553 384.898Z" fill="url(#paint2_linear)"/>
<path d="M29.7513 132.197H17.4257V120.72H12.3255V132.197H0V137.297H12.3255V148.774H17.4257V137.297H29.7513V132.197Z" fill="#0E1B47"/>
<path d="M368.491 197.231C362.158 197.231 357.016 192.088 357.016 185.755C357.016 179.421 362.158 174.278 368.491 174.278C374.824 174.278 379.967 179.421 379.967 185.755C379.967 192.088 374.824 197.231 368.491 197.231ZM368.491 179.379C364.963 179.379 362.116 182.227 362.116 185.755C362.116 189.283 364.963 192.131 368.491 192.131C372.019 192.131 374.866 189.283 374.866 185.755C374.866 182.227 372.019 179.379 368.491 179.379Z" fill="#0E1B47"/>
<defs>
<linearGradient id="paint0_linear" x1="12.453" y1="227.835" x2="177.168" y2="448.989" gradientUnits="userSpaceOnUse">
<stop stop-color="#57B1E4"/>
<stop offset="1" stop-color="#0052CC"/>
</linearGradient>
<linearGradient id="paint1_linear" x1="41.3546" y1="168.751" x2="206.069" y2="389.905" gradientUnits="userSpaceOnUse">
<stop stop-color="#57B1E4"/>
<stop offset="1" stop-color="#0052CC"/>
</linearGradient>
<linearGradient id="paint2_linear" x1="-20.5756" y1="301.048" x2="49.7273" y2="502.715" gradientUnits="userSpaceOnUse">
<stop stop-color="#57B1E4"/>
<stop offset="1" stop-color="#0052CC"/>
</linearGradient>
</defs>
</svg>
