<svg width="400" height="366" viewBox="0 0 400 366" fill="none" xmlns="http://www.w3.org/2000/svg">
<path d="M223.808 24.2406C184.134 -9.04888 43.989 -29.0593 13.185 112.154C1.44489 165.932 -33.7386 302.548 97.5739 315.569C140.228 319.799 152.852 300.929 221.011 325.207C317.066 359.416 466.78 277.535 367.118 115.538C336.572 65.8433 296.457 85.1915 223.808 24.2406Z" fill="#B1E5FE"/>
<path d="M356.887 50.4308V272.311C356.887 280.477 350.262 287.098 342.092 287.098H63.4207C55.2505 287.098 48.626 280.477 48.626 272.311V50.4308C48.626 42.2648 55.2505 35.6436 63.4207 35.6436H342.092C350.262 35.6068 356.887 42.2648 356.887 50.4308Z" fill="url(#paint0_linear)"/>
<path opacity="0.4" d="M92.6055 116.936C92.6055 121.792 96.5434 125.691 101.365 125.691H303.044C307.902 125.691 311.803 121.755 311.803 116.936C311.803 112.081 307.865 108.182 303.044 108.182H101.365C96.5434 108.145 92.6055 112.081 92.6055 116.936Z" fill="white"/>
<path opacity="0.4" d="M92.6055 167.624C92.6055 172.48 96.5434 176.379 101.365 176.379H303.044C307.902 176.379 311.803 172.443 311.803 167.624C311.803 162.769 307.865 158.87 303.044 158.87H101.365C96.5434 158.87 92.6055 162.806 92.6055 167.624Z" fill="white"/>
<path opacity="0.4" d="M195.322 218.349C195.322 223.205 199.26 227.104 204.081 227.104H303.081C307.939 227.104 311.84 223.168 311.84 218.349C311.84 213.494 307.902 209.595 303.081 209.595H204.081C199.26 209.595 195.322 213.531 195.322 218.349Z" fill="white"/>
<path opacity="0.4" d="M356.887 50.4308V66.1007H48.626V50.4308C48.626 42.2648 55.2505 35.6436 63.4207 35.6436H342.092C350.262 35.6068 356.887 42.2648 356.887 50.4308Z" fill="white"/>
<path d="M101.402 305.049L83.3682 354.303L103.904 347.351L117.521 366L134.561 315.128L101.402 305.049Z" fill="#2DCA73"/>
<path d="M164.298 305.049L182.294 354.303L161.758 347.351L148.178 366L131.102 315.128L164.298 305.049Z" fill="#2DCA73"/>
<path d="M109.903 215.591L111.853 216.179C115.901 217.43 120.281 216.216 123.078 213.052L123.998 212.022C128.414 207.13 136.143 207.241 140.375 212.317L140.633 212.611C143.467 215.995 148.067 217.319 152.263 215.958L153.772 215.48C159.77 213.531 166.174 217.135 167.646 223.278L168.014 224.787C169.008 229.017 172.504 232.254 176.81 232.953L177.178 233.026C183.508 234.056 187.52 240.309 185.9 246.489L185.275 248.806C184.244 252.706 185.459 256.862 188.44 259.584L189.213 260.283C193.85 264.513 193.924 271.76 189.397 276.1L187.925 277.498C185.054 280.257 183.913 284.377 184.98 288.239L185.606 290.519C187.262 296.405 183.692 302.474 177.767 303.946L176.81 304.166C172.32 305.27 169.045 309.095 168.603 313.656L168.566 314.135C167.978 320.572 161.905 325.06 155.575 323.735L152.336 323.073C148.582 322.301 144.718 323.551 142.105 326.384L140.964 327.634C136.695 332.343 129.298 332.343 124.992 327.671L123.52 326.053C120.649 322.926 116.159 321.749 112.111 323.11L111.264 323.404C104.824 325.538 98.0153 321.308 97.0952 314.576L97.0216 314.024C96.3959 309.463 92.9733 305.785 88.4465 304.865L86.864 304.534C80.8283 303.32 77.0008 297.288 78.5097 291.292L79.209 288.496C80.2027 284.56 78.8778 280.367 75.8231 277.682L75.3815 277.277C70.5235 273.047 70.4131 265.58 75.0871 261.203L76.044 260.283C78.9882 257.524 80.1659 253.368 79.0986 249.469L78.3625 246.857C76.6328 240.677 80.6811 234.35 87.0112 233.284C91.3171 232.585 94.7766 229.348 95.7703 225.118L96.1751 223.426C97.6472 217.356 103.904 213.788 109.903 215.591Z" fill="#0E1B47"/>
<path d="M132.058 306.41C152.424 306.41 168.935 289.908 168.935 269.553C168.935 249.197 152.424 232.695 132.058 232.695C111.692 232.695 95.1816 249.197 95.1816 269.553C95.1816 289.908 111.692 306.41 132.058 306.41Z" fill="white"/>
<path d="M279.896 9.93166H269.223V0H264.806V9.93166H254.134V14.3457H264.806V24.2774H269.223V14.3457H279.896V9.93166Z" fill="#0E1B47"/>
<path d="M18.5952 191.644C13.1116 191.644 8.65845 187.193 8.65845 181.713C8.65845 176.232 13.1116 171.781 18.5952 171.781C24.0788 171.781 28.532 176.232 28.532 181.713C28.532 187.193 24.0788 191.644 18.5952 191.644ZM18.5952 176.195C15.5406 176.195 13.0748 178.659 13.0748 181.713C13.0748 184.766 15.5406 187.23 18.5952 187.23C21.6499 187.23 24.1156 184.766 24.1156 181.713C24.1156 178.659 21.6499 176.195 18.5952 176.195Z" fill="#0E1B47"/>
<defs>
<linearGradient id="paint0_linear" x1="-23.1639" y1="136.909" x2="113.591" y2="388.181" gradientUnits="userSpaceOnUse">
<stop stop-color="#57B1E4"/>
<stop offset="1" stop-color="#0052CC"/>
</linearGradient>
</defs>
</svg>
