<svg width="400" height="380" viewBox="0 0 400 380" fill="none" xmlns="http://www.w3.org/2000/svg">
<path d="M2.06139 125.218C12.4482 45.2137 142.228 -41.6412 267.801 21.9829C317.352 47.0751 321.447 120.788 327.218 168.367C330.382 194.464 341.514 223.949 365.638 266.204C378.073 287.983 392.443 349.671 326.027 369.104C259.648 388.501 156.077 376.997 116.205 357.415C65.4621 332.471 -13.7981 247.664 2.06139 125.218Z" fill="url(#paint0_linear)"/>
<path d="M353.055 100.238V318.473C353.055 325.659 347.21 331.503 340.025 331.503H45.2098C38.0246 331.503 32.1797 325.659 32.1797 318.473V100.238C32.1797 93.0528 38.0246 87.2079 45.2098 87.2079H340.025C347.21 87.2079 353.055 93.0156 353.055 100.238Z" fill="url(#paint1_linear)"/>
<path d="M326.511 140.817H58.5752V246.212H326.511V140.817Z" fill="#0E1B47"/>
<path opacity="0.4" d="M353.055 100.238V121.012H32.1797V100.238C32.1797 93.0528 38.0246 87.2079 45.2098 87.2079H340.025C347.21 87.2079 353.055 93.0156 353.055 100.238Z" fill="white"/>
<path d="M140.814 259.205H58.5752V306.932H140.814V259.205Z" fill="#0E1B47"/>
<path d="M233.774 259.205H151.535V306.932H233.774V259.205Z" fill="#0E1B47"/>
<path d="M326.51 259.205H244.272V306.932H326.51V259.205Z" fill="#0E1B47"/>
<path opacity="0.4" d="M102.579 197.554H84.1509V226.63H102.579V197.554Z" fill="white"/>
<path opacity="0.4" d="M139.696 179.126H121.268V226.63H139.696V179.126Z" fill="white"/>
<path opacity="0.4" d="M176.814 159.246H158.385V226.593H176.814V159.246Z" fill="white"/>
<path opacity="0.4" d="M213.931 159.246H195.502V226.593H213.931V159.246Z" fill="white"/>
<path opacity="0.4" d="M248.851 177.897C253.148 177.897 256.632 174.414 256.632 170.116C256.632 165.819 253.148 162.336 248.851 162.336C244.554 162.336 241.07 165.819 241.07 170.116C241.07 174.414 244.554 177.897 248.851 177.897Z" fill="white"/>
<path opacity="0.4" d="M248.851 201.314C253.148 201.314 256.632 197.831 256.632 193.533C256.632 189.236 253.148 185.752 248.851 185.752C244.554 185.752 241.07 189.236 241.07 193.533C241.07 197.831 244.554 201.314 248.851 201.314Z" fill="white"/>
<path opacity="0.4" d="M248.851 224.694C253.148 224.694 256.632 221.21 256.632 216.913C256.632 212.616 253.148 209.132 248.851 209.132C244.554 209.132 241.07 212.616 241.07 216.913C241.07 221.21 244.554 224.694 248.851 224.694Z" fill="white"/>
<path d="M300.116 167.51H263.966V172.722H300.116V167.51Z" fill="url(#paint2_linear)"/>
<path d="M299.743 190.778H263.594V195.99H299.743V190.778Z" fill="url(#paint3_linear)"/>
<path d="M300.116 214.307H263.966V219.519H300.116V214.307Z" fill="url(#paint4_linear)"/>
<path d="M343.561 163.601C374.731 163.601 400 138.333 400 107.162C400 75.9921 374.731 50.7236 343.561 50.7236C312.391 50.7236 287.122 75.9921 287.122 107.162C287.122 138.333 312.391 163.601 343.561 163.601Z" fill="#3C9FFC"/>
<path d="M343.561 153.438C369.119 153.438 389.837 132.72 389.837 107.163C389.837 81.6053 369.119 60.8871 343.561 60.8871C318.004 60.8871 297.286 81.6053 297.286 107.163C297.286 132.72 318.004 153.438 343.561 153.438Z" fill="#0E1B47"/>
<path d="M307.859 117.475C307.859 120.193 311.023 121.644 313.108 119.895L331.015 104.631L346.428 123.692L372.488 102.137L372.004 114.087C371.93 115.837 373.307 117.326 375.057 117.4C376.807 117.475 378.296 116.097 378.37 114.348L379.264 91.638L359.272 90.7445C357.522 90.6701 356.033 92.0103 355.959 93.7601C355.884 95.5098 357.224 96.999 358.974 97.0734L368.095 97.483L347.284 114.72L331.797 95.5843L308.901 115.092C308.268 115.651 307.859 116.544 307.859 117.475Z" fill="white"/>
<path d="M224.28 39.257H213.484V29.2052H209.017V39.257H198.22V43.7244H209.017V53.7762H213.484V43.7244H224.28V39.257Z" fill="#0E1B47"/>
<path d="M389.576 219.072C384.029 219.072 379.524 214.568 379.524 209.02C379.524 203.473 384.029 198.969 389.576 198.969C395.123 198.969 399.628 203.473 399.628 209.02C399.628 214.568 395.123 219.072 389.576 219.072ZM389.576 203.436C386.486 203.436 383.992 205.93 383.992 209.02C383.992 212.11 386.486 214.605 389.576 214.605C392.666 214.605 395.161 212.11 395.161 209.02C395.161 205.93 392.666 203.436 389.576 203.436Z" fill="#0E1B47"/>
<defs>
<linearGradient id="paint0_linear" x1="-87.6139" y1="152.672" x2="139.753" y2="490.846" gradientUnits="userSpaceOnUse">
<stop stop-color="#3D8AFC"/>
<stop offset="1" stop-color="#1F76F8"/>
</linearGradient>
<linearGradient id="paint1_linear" x1="-42.548" y1="185.59" x2="85.2193" y2="437.117" gradientUnits="userSpaceOnUse">
<stop stop-color="#57B1E4"/>
<stop offset="1" stop-color="#0052CC"/>
</linearGradient>
<linearGradient id="paint2_linear" x1="263.963" y1="170.13" x2="300.112" y2="170.13" gradientUnits="userSpaceOnUse">
<stop stop-color="#FB97A3"/>
<stop offset="1" stop-color="#F9749A"/>
</linearGradient>
<linearGradient id="paint3_linear" x1="263.608" y1="193.402" x2="299.758" y2="193.402" gradientUnits="userSpaceOnUse">
<stop stop-color="#FB97A3"/>
<stop offset="1" stop-color="#F9749A"/>
</linearGradient>
<linearGradient id="paint4_linear" x1="263.963" y1="216.911" x2="300.112" y2="216.911" gradientUnits="userSpaceOnUse">
<stop stop-color="#FB97A3"/>
<stop offset="1" stop-color="#F9749A"/>
</linearGradient>
</defs>
</svg>
