<svg width="400" height="356" viewBox="0 0 400 356" fill="none" xmlns="http://www.w3.org/2000/svg">
<path d="M18.5419 281.033C0.408748 241.526 -25.4958 132.185 58.1389 87.7534C85.5607 73.2018 120.31 59.613 168.048 65.5373C202.464 69.7954 318.405 -58.7616 379.725 49.2455C406 95.529 421.913 246.598 328.286 268.074C234.66 289.549 244.281 313.617 208.755 338.054C165.791 367.602 57.1027 365.121 18.5419 281.033Z" fill="url(#paint0_linear)"/>
<path d="M280.998 0H331.4C338.469 0 344.168 5.73915 344.168 12.7742V313.506H268.193V12.7742C268.193 5.70212 273.929 0 280.998 0Z" fill="url(#paint1_linear)"/>
<path d="M175.636 87.8644H226.039C233.107 87.8644 238.806 93.6035 238.806 100.639V313.506H162.832V100.639C162.832 93.6035 168.568 87.8644 175.636 87.8644Z" fill="url(#paint2_linear)"/>
<path d="M70.7946 184.319H121.197C128.266 184.319 133.965 190.058 133.965 197.093V313.469H58.0273V197.093C58.0273 190.058 63.7263 184.319 70.7946 184.319Z" fill="url(#paint3_linear)"/>
<path d="M20.9477 305.471H378.134C385.795 305.471 392.012 311.691 392.012 319.356C392.012 327.02 385.795 333.241 378.134 333.241H20.9477C13.2874 333.241 7.07031 327.02 7.07031 319.356C7.07031 311.691 13.2874 305.471 20.9477 305.471Z" fill="#0E1B47"/>
<path d="M78.6377 263.075C74.752 257.817 75.8622 250.375 81.1172 246.45L187.141 167.99L228.81 217.014L360.812 120.522C366.104 116.671 373.542 117.819 377.391 123.114C381.277 128.409 380.093 135.851 374.801 139.702L225.035 249.227L183.44 200.315L95.2536 265.593C89.9617 269.481 82.5604 268.37 78.6377 263.075Z" fill="white"/>
<path d="M83.0472 149.107C114.788 149.107 140.518 123.362 140.518 91.6041C140.518 59.8463 114.788 34.1016 83.0472 34.1016C51.3068 34.1016 25.5762 59.8463 25.5762 91.6041C25.5762 123.362 51.3068 149.107 83.0472 149.107Z" fill="#3C9FFC"/>
<path d="M83.0468 138.74C109.064 138.74 130.156 117.636 130.156 91.6043C130.156 65.5723 109.064 44.4693 83.0468 44.4693C57.029 44.4693 35.9375 65.5723 35.9375 91.6043C35.9375 117.636 57.029 138.74 83.0468 138.74Z" fill="#0E1B47"/>
<path d="M79.6078 123.262V115.746C74.7229 115.597 69.8751 114.19 67.0996 112.339L69.172 105.082C72.1695 106.859 76.4992 108.488 81.2361 108.488C86.1209 108.488 89.4145 106.082 89.4145 102.379C89.4145 98.8984 86.713 96.6397 80.977 94.5662C72.8726 91.6411 67.6177 87.9014 67.6177 80.7182C67.6177 74.0534 72.2435 68.9437 80.0519 67.5737V59.9832H86.38V67.1664C91.2648 67.3145 94.5584 68.4993 97.0379 69.7212L94.9655 76.8304C93.1152 75.9788 89.7106 74.2015 84.4556 74.2015C79.0527 74.2015 77.1284 76.9785 77.1284 79.6074C77.1284 82.7917 79.9039 84.569 86.491 87.1979C95.1505 90.4563 98.9992 94.6404 98.9992 101.527C98.9992 108.118 94.4474 113.894 85.9359 115.301V123.262H79.6078Z" fill="white"/>
<path d="M182.477 24.8077H171.745V14.8105H167.304V24.8077H156.572V29.2509H167.304V39.2482H171.745V29.2509H182.477V24.8077Z" fill="white"/>
<path d="M28.5269 190.688C23.0129 190.688 18.5352 186.208 18.5352 180.691C18.5352 175.174 23.0129 170.693 28.5269 170.693C34.0409 170.693 38.5187 175.174 38.5187 180.691C38.5187 186.208 34.0409 190.688 28.5269 190.688ZM28.5269 175.137C25.4554 175.137 22.9759 177.617 22.9759 180.691C22.9759 183.764 25.4554 186.245 28.5269 186.245C31.5984 186.245 34.0779 183.764 34.0779 180.691C34.0779 177.617 31.5984 175.137 28.5269 175.137Z" fill="#0E1B47"/>
<defs>
<linearGradient id="paint0_linear" x1="0" y1="180.568" x2="400" y2="180.568" gradientUnits="userSpaceOnUse">
<stop stop-color="#396AFC"/>
<stop offset="1" stop-color="#2948FF"/>
</linearGradient>
<linearGradient id="paint1_linear" x1="250.5" y1="126.255" x2="380.802" y2="173.582" gradientUnits="userSpaceOnUse">
<stop stop-color="#57B1E4"/>
<stop offset="1" stop-color="#0052CC"/>
</linearGradient>
<linearGradient id="paint2_linear" x1="145.139" y1="178.734" x2="262.693" y2="238.058" gradientUnits="userSpaceOnUse">
<stop stop-color="#57B1E4"/>
<stop offset="1" stop-color="#0052CC"/>
</linearGradient>
<linearGradient id="paint3_linear" x1="40.3425" y1="236.33" x2="123.32" y2="309.455" gradientUnits="userSpaceOnUse">
<stop stop-color="#57B1E4"/>
<stop offset="1" stop-color="#0052CC"/>
</linearGradient>
</defs>
</svg>
