<svg width="565" height="501" viewBox="0 0 565 501" fill="none" xmlns="http://www.w3.org/2000/svg">
<path fill-rule="evenodd" clip-rule="evenodd" d="M60 30.1035H495V470.104H60V30.1035Z" fill="url(#paint0_linear)"/>
<g clip-path="url(#clip0)">
<path d="M125.5 161.604H564.5V370.604H125.5V161.604Z" fill="#F5F9FC" stroke="#9FB2C2"/>
<path fill-rule="evenodd" clip-rule="evenodd" d="M470 331.104C505.899 331.104 535 302.002 535 266.104C535 230.205 505.899 201.104 470 201.104C434.101 201.104 405 230.205 405 266.104C405 302.002 434.101 331.104 470 331.104Z" stroke="#E1E9F0" stroke-width="2"/>
<path d="M422.555 310.533C434.415 323.193 451.284 331.104 470 331.104V331.104C487.828 331.104 503.98 323.926 515.723 312.303C527.626 300.522 535 284.174 535 266.104C535 230.205 505.898 201.104 470 201.104" stroke="#0052CC" stroke-width="4"/>
<path d="M446.707 261.829L445.937 262.756C446.38 262.558 446.859 262.406 447.372 262.301C447.885 262.196 448.44 262.144 449.035 262.144C449.98 262.144 450.901 262.301 451.8 262.616C452.698 262.931 453.497 263.404 454.197 264.034C454.897 264.664 455.457 265.457 455.877 266.414C456.309 267.359 456.525 268.473 456.525 269.756C456.525 270.934 456.303 272.049 455.86 273.099C455.428 274.149 454.81 275.064 454.005 275.846C453.211 276.628 452.255 277.246 451.135 277.701C450.026 278.156 448.79 278.384 447.425 278.384C446.036 278.384 444.794 278.168 443.697 277.736C442.6 277.293 441.667 276.674 440.897 275.881C440.127 275.088 439.538 274.143 439.13 273.046C438.721 271.938 438.517 270.719 438.517 269.389C438.517 268.164 438.756 266.921 439.235 265.661C439.725 264.401 440.465 263.106 441.457 261.776L447.355 253.831C447.588 253.528 447.932 253.265 448.387 253.044C448.842 252.822 449.361 252.711 449.945 252.711H454.232L446.707 261.829ZM447.337 274.499C447.967 274.499 448.55 274.388 449.087 274.166C449.624 273.944 450.085 273.635 450.47 273.239C450.855 272.842 451.158 272.381 451.38 271.856C451.601 271.319 451.712 270.736 451.712 270.106C451.712 269.418 451.607 268.799 451.397 268.251C451.187 267.703 450.89 267.242 450.505 266.869C450.12 266.484 449.659 266.192 449.122 265.994C448.585 265.795 447.99 265.696 447.337 265.696C446.719 265.696 446.153 265.807 445.64 266.029C445.126 266.239 444.683 266.542 444.31 266.939C443.948 267.324 443.662 267.784 443.452 268.321C443.254 268.858 443.155 269.447 443.155 270.089C443.155 270.754 443.242 271.36 443.417 271.909C443.592 272.445 443.855 272.906 444.205 273.291C444.555 273.676 444.986 273.974 445.5 274.184C446.025 274.394 446.637 274.499 447.337 274.499Z" fill="#0052CC"/>
<path d="M459.257 259.869C459.444 258.632 459.794 257.547 460.307 256.614C460.821 255.68 461.462 254.904 462.232 254.286C463.002 253.668 463.877 253.207 464.857 252.904C465.849 252.589 466.916 252.431 468.06 252.431C469.273 252.431 470.358 252.606 471.315 252.956C472.283 253.294 473.1 253.761 473.765 254.356C474.43 254.951 474.937 255.645 475.287 256.439C475.649 257.232 475.83 258.084 475.83 258.994C475.83 259.799 475.742 260.51 475.567 261.129C475.404 261.735 475.153 262.266 474.815 262.721C474.488 263.176 474.08 263.561 473.59 263.876C473.111 264.191 472.557 264.454 471.927 264.664C474.844 265.62 476.302 267.563 476.302 270.491C476.302 271.786 476.063 272.929 475.585 273.921C475.106 274.901 474.465 275.724 473.66 276.389C472.855 277.054 471.916 277.555 470.842 277.894C469.781 278.22 468.666 278.384 467.5 278.384C466.263 278.384 465.172 278.244 464.227 277.964C463.282 277.684 462.448 277.264 461.725 276.704C461.013 276.144 460.401 275.444 459.887 274.604C459.374 273.752 458.925 272.76 458.54 271.629L460.675 270.754C461.235 270.52 461.754 270.456 462.232 270.561C462.722 270.666 463.072 270.923 463.282 271.331C463.516 271.774 463.761 272.183 464.017 272.556C464.286 272.929 464.583 273.256 464.91 273.536C465.236 273.804 465.604 274.014 466.012 274.166C466.432 274.318 466.911 274.394 467.447 274.394C468.124 274.394 468.713 274.283 469.215 274.061C469.716 273.839 470.136 273.554 470.475 273.204C470.813 272.842 471.064 272.439 471.227 271.996C471.402 271.541 471.49 271.092 471.49 270.649C471.49 270.065 471.437 269.54 471.332 269.074C471.227 268.595 470.982 268.193 470.597 267.866C470.224 267.528 469.664 267.271 468.917 267.096C468.182 266.909 467.179 266.816 465.907 266.816V263.421C466.969 263.421 467.838 263.334 468.515 263.159C469.191 262.984 469.722 262.739 470.107 262.424C470.492 262.109 470.755 261.729 470.895 261.286C471.046 260.843 471.122 260.359 471.122 259.834C471.122 258.725 470.831 257.879 470.247 257.296C469.676 256.713 468.859 256.421 467.797 256.421C467.331 256.421 466.899 256.491 466.502 256.631C466.117 256.759 465.767 256.94 465.452 257.174C465.149 257.407 464.886 257.681 464.665 257.996C464.443 258.311 464.28 258.655 464.175 259.029C463.953 259.612 463.667 260.003 463.317 260.201C462.967 260.388 462.46 260.429 461.795 260.324L459.257 259.869Z" fill="#0052CC"/>
<path d="M491.04 258.854C491.04 259.799 490.877 260.656 490.55 261.426C490.223 262.196 489.78 262.861 489.22 263.421C488.672 263.969 488.036 264.395 487.313 264.699C486.589 264.99 485.837 265.136 485.055 265.136C484.192 265.136 483.398 264.99 482.675 264.699C481.952 264.395 481.322 263.969 480.785 263.421C480.26 262.861 479.846 262.196 479.543 261.426C479.251 260.656 479.105 259.799 479.105 258.854C479.105 257.874 479.251 256.993 479.543 256.211C479.846 255.418 480.26 254.747 480.785 254.199C481.322 253.639 481.952 253.207 482.675 252.904C483.398 252.6 484.192 252.449 485.055 252.449C485.918 252.449 486.718 252.6 487.453 252.904C488.188 253.207 488.818 253.639 489.343 254.199C489.879 254.747 490.293 255.418 490.585 256.211C490.888 256.993 491.04 257.874 491.04 258.854ZM487.33 258.854C487.33 258.224 487.272 257.699 487.155 257.279C487.038 256.847 486.875 256.503 486.665 256.246C486.467 255.989 486.228 255.809 485.948 255.704C485.668 255.587 485.37 255.529 485.055 255.529C484.74 255.529 484.443 255.587 484.163 255.704C483.894 255.809 483.661 255.989 483.463 256.246C483.276 256.503 483.124 256.847 483.008 257.279C482.903 257.699 482.85 258.224 482.85 258.854C482.85 259.472 482.903 259.985 483.008 260.394C483.124 260.802 483.276 261.134 483.463 261.391C483.661 261.636 483.894 261.811 484.163 261.916C484.443 262.021 484.74 262.074 485.055 262.074C485.37 262.074 485.668 262.021 485.948 261.916C486.228 261.811 486.467 261.636 486.665 261.391C486.875 261.134 487.038 260.802 487.155 260.394C487.272 259.985 487.33 259.472 487.33 258.854ZM499.265 253.446C499.428 253.259 499.621 253.09 499.843 252.939C500.076 252.787 500.397 252.711 500.805 252.711H504.323L485.335 277.404C485.172 277.602 484.973 277.771 484.74 277.911C484.507 278.039 484.221 278.104 483.883 278.104H480.295L499.265 253.446ZM505.495 272.136C505.495 273.081 505.332 273.939 505.005 274.709C504.678 275.479 504.235 276.144 503.675 276.704C503.127 277.252 502.491 277.678 501.768 277.981C501.044 278.273 500.292 278.419 499.51 278.419C498.647 278.419 497.853 278.273 497.13 277.981C496.407 277.678 495.777 277.252 495.24 276.704C494.715 276.144 494.301 275.479 493.998 274.709C493.706 273.939 493.56 273.081 493.56 272.136C493.56 271.156 493.706 270.275 493.998 269.494C494.301 268.7 494.715 268.029 495.24 267.481C495.777 266.921 496.407 266.495 497.13 266.204C497.853 265.9 498.647 265.749 499.51 265.749C500.373 265.749 501.173 265.9 501.908 266.204C502.643 266.495 503.273 266.921 503.798 267.481C504.334 268.029 504.748 268.7 505.04 269.494C505.343 270.275 505.495 271.156 505.495 272.136ZM501.785 272.136C501.785 271.506 501.727 270.981 501.61 270.561C501.493 270.129 501.33 269.785 501.12 269.529C500.922 269.272 500.683 269.091 500.403 268.986C500.123 268.869 499.825 268.811 499.51 268.811C499.195 268.811 498.898 268.869 498.618 268.986C498.349 269.091 498.116 269.272 497.918 269.529C497.731 269.785 497.579 270.129 497.463 270.561C497.358 270.981 497.305 271.506 497.305 272.136C497.305 272.754 497.358 273.268 497.463 273.676C497.579 274.084 497.731 274.417 497.918 274.674C498.116 274.919 498.349 275.094 498.618 275.199C498.898 275.304 499.195 275.356 499.51 275.356C499.825 275.356 500.123 275.304 500.403 275.199C500.683 275.094 500.922 274.919 501.12 274.674C501.33 274.417 501.493 274.084 501.61 273.676C501.727 273.268 501.785 272.754 501.785 272.136Z" fill="#0052CC"/>
</g>
<g clip-path="url(#clip1)">
<path d="M8.5 121.604H447.5V330.604H8.5V121.604Z" fill="white" stroke="#9FB2C2"/>
<path d="M28.3118 234.104L29.152 231.593H32.9801L33.8253 234.104H35.794L32.2045 223.922H29.9276L26.343 234.104H28.3118ZM29.6491 230.111L31.0263 226.01H31.1058L32.483 230.111H29.6491ZM43.362 234.238C44.6745 234.238 45.2662 233.457 45.5495 232.9H45.6589V234.104H47.4288V223.922H45.6241V227.73H45.5495C45.2761 227.178 44.7143 226.368 43.367 226.368C41.6021 226.368 40.215 227.75 40.215 230.295C40.215 232.811 41.5623 234.238 43.362 234.238ZM43.8642 232.761C42.676 232.761 42.0495 231.717 42.0495 230.285C42.0495 228.863 42.666 227.844 43.8642 227.844C45.0225 227.844 45.6589 228.804 45.6589 230.285C45.6589 231.767 45.0126 232.761 43.8642 232.761ZM52.7273 234.253C54.5071 234.253 55.7301 233.383 56.0483 232.055L54.3679 231.866C54.1243 232.513 53.5277 232.851 52.7521 232.851C51.5888 232.851 50.8182 232.085 50.8033 230.778H56.1229V230.226C56.1229 227.546 54.5121 226.368 52.6328 226.368C50.4453 226.368 49.0185 227.974 49.0185 230.33C49.0185 232.726 50.4254 234.253 52.7273 234.253ZM50.8082 229.564C50.8629 228.59 51.5838 227.77 52.6577 227.77C53.6918 227.77 54.3878 228.525 54.3977 229.564H50.8082ZM64.2477 226.467H62.3336L60.5737 232.14H60.4941L58.7392 226.467H56.8201L59.5396 234.104H61.5282L64.2477 226.467ZM65.4931 234.104H67.2928V226.467H65.4931V234.104ZM66.3979 225.383C66.9696 225.383 67.437 224.946 67.437 224.409C67.437 223.867 66.9696 223.43 66.3979 223.43C65.8212 223.43 65.3539 223.867 65.3539 224.409C65.3539 224.946 65.8212 225.383 66.3979 225.383ZM72.4744 234.253C74.3935 234.253 75.6165 233.114 75.7457 231.493H74.0256C73.8714 232.314 73.2798 232.786 72.4893 232.786C71.3658 232.786 70.6399 231.846 70.6399 230.285C70.6399 228.744 71.3807 227.819 72.4893 227.819C73.3544 227.819 73.8864 228.376 74.0256 229.112H75.7457C75.6214 227.456 74.3288 226.368 72.4645 226.368C70.2273 226.368 68.8153 227.983 68.8153 230.315C68.8153 232.627 70.1925 234.253 72.4744 234.253ZM80.6042 234.253C82.3841 234.253 83.6071 233.383 83.9252 232.055L82.2449 231.866C82.0012 232.513 81.4047 232.851 80.6291 232.851C79.4657 232.851 78.6951 232.085 78.6802 230.778H83.9998V230.226C83.9998 227.546 82.389 226.368 80.5098 226.368C78.3223 226.368 76.8954 227.974 76.8954 230.33C76.8954 232.726 78.3024 234.253 80.6042 234.253ZM78.6852 229.564C78.7399 228.59 79.4608 227.77 80.5346 227.77C81.5687 227.77 82.2647 228.525 82.2747 229.564H78.6852ZM92.8082 226.467H91.3018V224.638H89.5021V226.467H88.4183V227.859H89.5021V232.105C89.4922 233.542 90.5362 234.248 91.8885 234.208C92.4006 234.193 92.7536 234.094 92.9474 234.029L92.6442 232.622C92.5447 232.647 92.3409 232.692 92.1172 232.692C91.6648 232.692 91.3018 232.532 91.3018 231.807V227.859H92.8082V226.467ZM96.2772 229.629C96.2772 228.525 96.9632 227.889 97.9277 227.889C98.8723 227.889 99.4292 228.491 99.4292 229.52V234.104H101.229V229.241C101.229 227.397 100.185 226.368 98.5989 226.368C97.4256 226.368 96.6799 226.9 96.3269 227.765H96.2374V223.922H94.4775V234.104H96.2772V229.629ZM105.261 234.258C106.459 234.258 107.175 233.696 107.503 233.055H107.563V234.104H109.293V228.993C109.293 226.974 107.647 226.368 106.191 226.368C104.585 226.368 103.352 227.084 102.954 228.476L104.634 228.714C104.813 228.192 105.32 227.745 106.2 227.745C107.036 227.745 107.493 228.172 107.493 228.923V228.953C107.493 229.47 106.951 229.495 105.604 229.639C104.122 229.798 102.705 230.241 102.705 231.961C102.705 233.462 103.804 234.258 105.261 234.258ZM105.728 232.935C104.977 232.935 104.441 232.592 104.441 231.931C104.441 231.24 105.042 230.952 105.847 230.837C106.32 230.773 107.264 230.653 107.498 230.464V231.364C107.498 232.214 106.812 232.935 105.728 232.935ZM114.916 226.467H113.409V224.638H111.61V226.467H110.526V227.859H111.61V232.105C111.6 233.542 112.644 234.248 113.996 234.208C114.508 234.193 114.861 234.094 115.055 234.029L114.752 232.622C114.652 232.647 114.448 232.692 114.225 232.692C113.772 232.692 113.409 232.532 113.409 231.807V227.859H114.916V226.467ZM123.274 234.253C125.054 234.253 126.277 233.383 126.595 232.055L124.915 231.866C124.671 232.513 124.075 232.851 123.299 232.851C122.136 232.851 121.365 232.085 121.35 230.778H126.67V230.226C126.67 227.546 125.059 226.368 123.18 226.368C120.992 226.368 119.565 227.974 119.565 230.33C119.565 232.726 120.972 234.253 123.274 234.253ZM121.355 229.564C121.41 228.59 122.131 227.77 123.205 227.77C124.239 227.77 124.935 228.525 124.945 229.564H121.355ZM129.992 229.629C129.992 228.525 130.658 227.889 131.608 227.889C132.537 227.889 133.094 228.501 133.094 229.52V234.104H134.894V229.241C134.899 227.412 133.855 226.368 132.279 226.368C131.135 226.368 130.35 226.915 130.002 227.765H129.912V226.467H128.192V234.104H129.992V229.629ZM138.921 234.258C140.119 234.258 140.835 233.696 141.163 233.055H141.223V234.104H142.953V228.993C142.953 226.974 141.307 226.368 139.851 226.368C138.245 226.368 137.012 227.084 136.614 228.476L138.295 228.714C138.474 228.192 138.981 227.745 139.861 227.745C140.696 227.745 141.153 228.172 141.153 228.923V228.953C141.153 229.47 140.611 229.495 139.264 229.639C137.782 229.798 136.366 230.241 136.366 231.961C136.366 233.462 137.464 234.258 138.921 234.258ZM139.388 232.935C138.638 232.935 138.101 232.592 138.101 231.931C138.101 231.24 138.702 230.952 139.508 230.837C139.98 230.773 140.925 230.653 141.158 230.464V231.364C141.158 232.214 140.472 232.935 139.388 232.935ZM144.842 234.104H146.612V232.9H146.716C147 233.457 147.591 234.238 148.904 234.238C150.704 234.238 152.051 232.811 152.051 230.295C152.051 227.75 150.664 226.368 148.899 226.368C147.552 226.368 146.99 227.178 146.716 227.73H146.642V223.922H144.842V234.104ZM146.607 230.285C146.607 228.804 147.243 227.844 148.402 227.844C149.6 227.844 150.216 228.863 150.216 230.285C150.216 231.717 149.59 232.761 148.402 232.761C147.253 232.761 146.607 231.767 146.607 230.285ZM155.381 223.922H153.581V234.104H155.381V223.922ZM160.612 234.253C162.392 234.253 163.615 233.383 163.933 232.055L162.253 231.866C162.009 232.513 161.412 232.851 160.637 232.851C159.474 232.851 158.703 232.085 158.688 230.778H164.008V230.226C164.008 227.546 162.397 226.368 160.518 226.368C158.33 226.368 156.903 227.974 156.903 230.33C156.903 232.726 158.31 234.253 160.612 234.253ZM158.693 229.564C158.748 228.59 159.469 227.77 160.542 227.77C161.577 227.77 162.273 228.525 162.282 229.564H158.693ZM171.566 228.486C171.317 227.193 170.283 226.368 168.493 226.368C166.654 226.368 165.401 227.273 165.406 228.684C165.401 229.798 166.087 230.534 167.554 230.837L168.856 231.111C169.557 231.265 169.885 231.548 169.885 231.981C169.885 232.503 169.319 232.895 168.463 232.895C167.638 232.895 167.101 232.537 166.947 231.851L165.192 232.02C165.416 233.422 166.594 234.253 168.468 234.253C170.377 234.253 171.725 233.263 171.73 231.817C171.725 230.728 171.024 230.062 169.582 229.748L168.279 229.47C167.504 229.296 167.196 229.028 167.201 228.585C167.196 228.068 167.767 227.71 168.518 227.71C169.348 227.71 169.786 228.162 169.925 228.665L171.566 228.486ZM180.017 234.253C182.255 234.253 183.676 232.677 183.676 230.315C183.676 227.949 182.255 226.368 180.017 226.368C177.78 226.368 176.358 227.949 176.358 230.315C176.358 232.677 177.78 234.253 180.017 234.253ZM180.027 232.811C178.789 232.811 178.183 231.707 178.183 230.31C178.183 228.913 178.789 227.795 180.027 227.795C181.245 227.795 181.852 228.913 181.852 230.31C181.852 231.707 181.245 232.811 180.027 232.811ZM189.072 226.467H187.486V225.866C187.486 225.269 187.735 224.936 188.406 224.936C188.689 224.936 188.928 225.001 189.077 225.045L189.44 223.653C189.206 223.574 188.694 223.444 188.073 223.444C186.745 223.444 185.686 224.205 185.686 225.746V226.467H184.558V227.859H185.686V234.104H187.486V227.859H189.072V226.467ZM195.53 234.104H197.409L198.841 228.943H198.945L200.377 234.104H202.252L204.414 226.467H202.575L201.252 231.807H201.178L199.806 226.467H197.991L196.619 231.836H196.549L195.207 226.467H193.372L195.53 234.104ZM208.797 234.253C211.034 234.253 212.456 232.677 212.456 230.315C212.456 227.949 211.034 226.368 208.797 226.368C206.559 226.368 205.138 227.949 205.138 230.315C205.138 232.677 206.559 234.253 208.797 234.253ZM208.807 232.811C207.569 232.811 206.962 231.707 206.962 230.31C206.962 228.913 207.569 227.795 208.807 227.795C210.025 227.795 210.631 228.913 210.631 230.31C210.631 231.707 210.025 232.811 208.807 232.811ZM213.983 234.104H215.783V229.614C215.783 228.645 216.514 227.959 217.503 227.959C217.806 227.959 218.184 228.013 218.338 228.063V226.407C218.174 226.378 217.891 226.358 217.692 226.358C216.817 226.358 216.086 226.855 215.808 227.74H215.728V226.467H213.983V234.104ZM219.534 234.104H221.334V231.538L221.99 230.837L224.327 234.104H226.479L223.347 229.763L226.305 226.467H224.202L221.458 229.535H221.334V223.922H219.534V234.104ZM28.7244 248.629C28.7244 247.525 29.4105 246.889 30.375 246.889C31.3196 246.889 31.8764 247.491 31.8764 248.52V253.104H33.6761V248.241C33.6761 246.397 32.6321 245.368 31.0462 245.368C29.8729 245.368 29.1271 245.9 28.7741 246.765H28.6847V242.922H26.9247V253.104H28.7244V248.629ZM37.7081 253.258C38.9062 253.258 39.6222 252.696 39.9503 252.055H40.0099V253.104H41.7401V247.993C41.7401 245.974 40.0945 245.368 38.6378 245.368C37.032 245.368 35.799 246.084 35.4013 247.476L37.0817 247.714C37.2607 247.192 37.7678 246.745 38.6477 246.745C39.483 246.745 39.9403 247.172 39.9403 247.923V247.953C39.9403 248.47 39.3984 248.495 38.0511 248.639C36.5696 248.798 35.1527 249.241 35.1527 250.961C35.1527 252.462 36.2514 253.258 37.7081 253.258ZM38.1754 251.935C37.4247 251.935 36.8878 251.592 36.8878 250.931C36.8878 250.24 37.4893 249.952 38.2947 249.837C38.767 249.773 39.7116 249.653 39.9453 249.464V250.364C39.9453 251.214 39.2592 251.935 38.1754 251.935ZM50.0973 245.467H48.1832L46.4233 251.14H46.3438L44.5888 245.467H42.6697L45.3892 253.104H47.3778L50.0973 245.467ZM51.3427 253.104H53.1424V245.467H51.3427V253.104ZM52.2475 244.383C52.8192 244.383 53.2866 243.946 53.2866 243.409C53.2866 242.867 52.8192 242.43 52.2475 242.43C51.6708 242.43 51.2035 242.867 51.2035 243.409C51.2035 243.946 51.6708 244.383 52.2475 244.383ZM56.7928 248.629C56.7928 247.525 57.459 246.889 58.4086 246.889C59.3382 246.889 59.8951 247.501 59.8951 248.52V253.104H61.6948V248.241C61.6998 246.412 60.6557 245.368 59.0797 245.368C57.9363 245.368 57.1507 245.915 56.8027 246.765H56.7132V245.467H54.9931V253.104H56.7928V248.629ZM66.8453 256.126C68.9086 256.126 70.4299 255.182 70.4299 253.228V245.467H68.655V246.73H68.5556C68.2821 246.178 67.7104 245.368 66.3631 245.368C64.5982 245.368 63.2111 246.75 63.2111 249.26C63.2111 251.751 64.5982 252.994 66.3581 252.994C67.6657 252.994 68.2772 252.293 68.5556 251.731H68.6451V253.178C68.6451 254.302 67.8993 254.764 66.8752 254.764C65.7914 254.764 65.3141 254.252 65.0953 253.805L63.4746 254.197C63.8027 255.266 64.9015 256.126 66.8453 256.126ZM66.8603 251.582C65.6721 251.582 65.0456 250.657 65.0456 249.251C65.0456 247.863 65.6621 246.844 66.8603 246.844C68.0186 246.844 68.655 247.804 68.655 249.251C68.655 250.707 68.0087 251.582 66.8603 251.582ZM79.5602 245.467H78.0538V243.638H76.2541V245.467H75.1703V246.859H76.2541V251.105C76.2441 252.542 77.2882 253.248 78.6404 253.208C79.1525 253.193 79.5055 253.094 79.6994 253.029L79.3961 251.622C79.2967 251.647 79.0929 251.692 78.8691 251.692C78.4167 251.692 78.0538 251.532 78.0538 250.807V246.859H79.5602V245.467ZM84.3143 253.253C86.5515 253.253 87.9734 251.677 87.9734 249.315C87.9734 246.949 86.5515 245.368 84.3143 245.368C82.0771 245.368 80.6552 246.949 80.6552 249.315C80.6552 251.677 82.0771 253.253 84.3143 253.253ZM84.3242 251.811C83.0863 251.811 82.4798 250.707 82.4798 249.31C82.4798 247.913 83.0863 246.795 84.3242 246.795C85.5423 246.795 86.1488 247.913 86.1488 249.31C86.1488 250.707 85.5423 251.811 84.3242 251.811ZM93.0531 253.104H94.823V251.9H94.9274C95.2108 252.457 95.8024 253.238 97.1149 253.238C98.9146 253.238 100.262 251.811 100.262 249.295C100.262 246.75 98.8748 245.368 97.1099 245.368C95.7626 245.368 95.2008 246.178 94.9274 246.73H94.8528V242.922H93.0531V253.104ZM94.818 249.285C94.818 247.804 95.4544 246.844 96.6127 246.844C97.8109 246.844 98.4274 247.863 98.4274 249.285C98.4274 250.717 97.801 251.761 96.6127 251.761C95.4643 251.761 94.818 250.767 94.818 249.285ZM105.173 253.253C106.952 253.253 108.175 252.383 108.494 251.055L106.813 250.866C106.57 251.513 105.973 251.851 105.197 251.851C104.034 251.851 103.263 251.085 103.249 249.778H108.568V249.226C108.568 246.546 106.957 245.368 105.078 245.368C102.891 245.368 101.464 246.974 101.464 249.33C101.464 251.726 102.871 253.253 105.173 253.253ZM103.254 248.564C103.308 247.59 104.029 246.77 105.103 246.77C106.137 246.77 106.833 247.525 106.843 248.564H103.254ZM116.894 253.253C118.813 253.253 120.036 252.114 120.166 250.493H118.445C118.291 251.314 117.7 251.786 116.909 251.786C115.786 251.786 115.06 250.846 115.06 249.285C115.06 247.744 115.801 246.819 116.909 246.819C117.774 246.819 118.306 247.376 118.445 248.112H120.166C120.041 246.456 118.749 245.368 116.884 245.368C114.647 245.368 113.235 246.983 113.235 249.315C113.235 251.627 114.612 253.253 116.894 253.253ZM124.974 253.253C127.212 253.253 128.634 251.677 128.634 249.315C128.634 246.949 127.212 245.368 124.974 245.368C122.737 245.368 121.315 246.949 121.315 249.315C121.315 251.677 122.737 253.253 124.974 253.253ZM124.984 251.811C123.746 251.811 123.14 250.707 123.14 249.31C123.14 247.913 123.746 246.795 124.984 246.795C126.202 246.795 126.809 247.913 126.809 249.31C126.809 250.707 126.202 251.811 124.984 251.811ZM130.161 253.104H131.961V248.46C131.961 247.52 132.587 246.884 133.363 246.884C134.123 246.884 134.645 247.396 134.645 248.182V253.104H136.41V248.341C136.41 247.481 136.922 246.884 137.792 246.884C138.518 246.884 139.095 247.312 139.095 248.256V253.104H140.9V247.978C140.9 246.273 139.915 245.368 138.513 245.368C137.405 245.368 136.559 245.915 136.221 246.765H136.142C135.849 245.9 135.108 245.368 134.079 245.368C133.055 245.368 132.289 245.895 131.971 246.765H131.881V245.467H130.161V253.104ZM142.725 255.967H144.525V251.9H144.6C144.883 252.457 145.475 253.238 146.787 253.238C148.587 253.238 149.934 251.811 149.934 249.295C149.934 246.75 148.547 245.368 146.782 245.368C145.435 245.368 144.873 246.178 144.6 246.73H144.495V245.467H142.725V255.967ZM144.49 249.285C144.49 247.804 145.127 246.844 146.285 246.844C147.483 246.844 148.1 247.863 148.1 249.285C148.1 250.717 147.473 251.761 146.285 251.761C145.137 251.761 144.49 250.767 144.49 249.285ZM153.275 242.922H151.475V253.104H153.275V242.922ZM158.507 253.253C160.286 253.253 161.509 252.383 161.828 251.055L160.147 250.866C159.904 251.513 159.307 251.851 158.531 251.851C157.368 251.851 156.597 251.085 156.583 249.778H161.902V249.226C161.902 246.546 160.291 245.368 158.412 245.368C156.225 245.368 154.798 246.974 154.798 249.33C154.798 251.726 156.205 253.253 158.507 253.253ZM156.588 248.564C156.642 247.59 157.363 246.77 158.437 246.77C159.471 246.77 160.167 247.525 160.177 248.564H156.588ZM167.238 245.467H165.732V243.638H163.932V245.467H162.848V246.859H163.932V251.105C163.922 252.542 164.966 253.248 166.318 253.208C166.83 253.193 167.183 253.094 167.377 253.029L167.074 251.622C166.974 251.647 166.771 251.692 166.547 251.692C166.094 251.692 165.732 251.532 165.732 250.807V246.859H167.238V245.467ZM172.042 253.253C173.822 253.253 175.045 252.383 175.363 251.055L173.682 250.866C173.439 251.513 172.842 251.851 172.067 251.851C170.903 251.851 170.133 251.085 170.118 249.778H175.437V249.226C175.437 246.546 173.827 245.368 171.947 245.368C169.76 245.368 168.333 246.974 168.333 249.33C168.333 251.726 169.74 253.253 172.042 253.253ZM170.123 248.564C170.177 247.59 170.898 246.77 171.972 246.77C173.006 246.77 173.702 247.525 173.712 248.564H170.123ZM178.76 242.922H176.96V253.104H178.76V242.922ZM181.729 255.967C183.131 255.967 183.941 255.246 184.374 254.028L187.441 245.477L185.517 245.467L183.752 251.234H183.673L181.913 245.467H180.004L182.773 253.263L182.619 253.675C182.286 254.545 181.759 254.605 180.973 254.376L180.556 255.778C180.799 255.878 181.237 255.967 181.729 255.967ZM192.163 253.104H193.963V248.614C193.963 247.645 194.694 246.959 195.683 246.959C195.986 246.959 196.364 247.013 196.518 247.063V245.407C196.354 245.378 196.071 245.358 195.872 245.358C194.997 245.358 194.266 245.855 193.988 246.74H193.908V245.467H192.163V253.104ZM200.78 253.253C202.56 253.253 203.783 252.383 204.101 251.055L202.421 250.866C202.177 251.513 201.58 251.851 200.805 251.851C199.642 251.851 198.871 251.085 198.856 249.778H204.176V249.226C204.176 246.546 202.565 245.368 200.686 245.368C198.498 245.368 197.071 246.974 197.071 249.33C197.071 251.726 198.478 253.253 200.78 253.253ZM198.861 248.564C198.916 247.59 199.637 246.77 200.71 246.77C201.744 246.77 202.441 247.525 202.45 248.564H198.861ZM208.532 253.238C209.844 253.238 210.436 252.457 210.719 251.9H210.829V253.104H212.599V242.922H210.794V246.73H210.719C210.446 246.178 209.884 245.368 208.537 245.368C206.772 245.368 205.385 246.75 205.385 249.295C205.385 251.811 206.732 253.238 208.532 253.238ZM209.034 251.761C207.846 251.761 207.219 250.717 207.219 249.285C207.219 247.863 207.836 246.844 209.034 246.844C210.192 246.844 210.829 247.804 210.829 249.285C210.829 250.767 210.183 251.761 209.034 251.761ZM217.847 253.253C220.085 253.253 221.507 251.677 221.507 249.315C221.507 246.949 220.085 245.368 217.847 245.368C215.61 245.368 214.188 246.949 214.188 249.315C214.188 251.677 215.61 253.253 217.847 253.253ZM217.857 251.811C216.619 251.811 216.013 250.707 216.013 249.31C216.013 247.913 216.619 246.795 217.857 246.795C219.075 246.795 219.682 247.913 219.682 249.31C219.682 250.707 219.075 251.811 217.857 251.811ZM224.834 248.629C224.834 247.525 225.5 246.889 226.45 246.889C227.379 246.889 227.936 247.501 227.936 248.52V253.104H229.736V248.241C229.741 246.412 228.697 245.368 227.121 245.368C225.977 245.368 225.192 245.915 224.844 246.765H224.754V245.467H223.034V253.104H224.834V248.629ZM234.946 253.253C236.726 253.253 237.949 252.383 238.267 251.055L236.587 250.866C236.343 251.513 235.746 251.851 234.971 251.851C233.808 251.851 233.037 251.085 233.022 249.778H238.342V249.226C238.342 246.546 236.731 245.368 234.852 245.368C232.664 245.368 231.237 246.974 231.237 249.33C231.237 251.726 232.644 253.253 234.946 253.253ZM233.027 248.564C233.082 247.59 233.803 246.77 234.876 246.77C235.911 246.77 236.607 247.525 236.616 248.564H233.027ZM240.973 253.213C241.559 253.213 242.062 252.726 242.067 252.119C242.062 251.523 241.559 251.035 240.973 251.035C240.366 251.035 239.874 251.523 239.879 252.119C239.874 252.726 240.366 253.213 240.973 253.213Z" fill="#081729"/>
<path d="M28.3118 176.104L29.152 173.593H32.9801L33.8253 176.104H35.794L32.2045 165.922H29.9276L26.343 176.104H28.3118ZM29.6491 172.111L31.0263 168.01H31.1058L32.483 172.111H29.6491ZM43.362 176.238C44.6745 176.238 45.2662 175.457 45.5495 174.9H45.6589V176.104H47.4288V165.922H45.6241V169.73H45.5495C45.2761 169.178 44.7143 168.368 43.367 168.368C41.6021 168.368 40.215 169.75 40.215 172.295C40.215 174.811 41.5623 176.238 43.362 176.238ZM43.8642 174.761C42.676 174.761 42.0495 173.717 42.0495 172.285C42.0495 170.863 42.666 169.844 43.8642 169.844C45.0225 169.844 45.6589 170.804 45.6589 172.285C45.6589 173.767 45.0126 174.761 43.8642 174.761ZM52.7273 176.253C54.5071 176.253 55.7301 175.383 56.0483 174.055L54.3679 173.866C54.1243 174.513 53.5277 174.851 52.7521 174.851C51.5888 174.851 50.8182 174.085 50.8033 172.778H56.1229V172.226C56.1229 169.546 54.5121 168.368 52.6328 168.368C50.4453 168.368 49.0185 169.974 49.0185 172.33C49.0185 174.726 50.4254 176.253 52.7273 176.253ZM50.8082 171.564C50.8629 170.59 51.5838 169.77 52.6577 169.77C53.6918 169.77 54.3878 170.525 54.3977 171.564H50.8082ZM64.2477 168.467H62.3336L60.5737 174.14H60.4941L58.7392 168.467H56.8201L59.5396 176.104H61.5282L64.2477 168.467ZM65.4931 176.104H67.2928V168.467H65.4931V176.104ZM66.3979 167.383C66.9696 167.383 67.437 166.946 67.437 166.409C67.437 165.867 66.9696 165.43 66.3979 165.43C65.8212 165.43 65.3539 165.867 65.3539 166.409C65.3539 166.946 65.8212 167.383 66.3979 167.383ZM72.4744 176.253C74.3935 176.253 75.6165 175.114 75.7457 173.493H74.0256C73.8714 174.314 73.2798 174.786 72.4893 174.786C71.3658 174.786 70.6399 173.846 70.6399 172.285C70.6399 170.744 71.3807 169.819 72.4893 169.819C73.3544 169.819 73.8864 170.376 74.0256 171.112H75.7457C75.6214 169.456 74.3288 168.368 72.4645 168.368C70.2273 168.368 68.8153 169.983 68.8153 172.315C68.8153 174.627 70.1925 176.253 72.4744 176.253ZM80.6042 176.253C82.3841 176.253 83.6071 175.383 83.9252 174.055L82.2449 173.866C82.0012 174.513 81.4047 174.851 80.6291 174.851C79.4657 174.851 78.6951 174.085 78.6802 172.778H83.9998V172.226C83.9998 169.546 82.389 168.368 80.5098 168.368C78.3223 168.368 76.8954 169.974 76.8954 172.33C76.8954 174.726 78.3024 176.253 80.6042 176.253ZM78.6852 171.564C78.7399 170.59 79.4608 169.77 80.5346 169.77C81.5687 169.77 82.2647 170.525 82.2747 171.564H78.6852ZM92.8082 168.467H91.3018V166.638H89.5021V168.467H88.4183V169.859H89.5021V174.105C89.4922 175.542 90.5362 176.248 91.8885 176.208C92.4006 176.193 92.7536 176.094 92.9474 176.029L92.6442 174.622C92.5447 174.647 92.3409 174.692 92.1172 174.692C91.6648 174.692 91.3018 174.532 91.3018 173.807V169.859H92.8082V168.467ZM96.2772 171.629C96.2772 170.525 96.9632 169.889 97.9277 169.889C98.8723 169.889 99.4292 170.491 99.4292 171.52V176.104H101.229V171.241C101.229 169.397 100.185 168.368 98.5989 168.368C97.4256 168.368 96.6799 168.9 96.3269 169.765H96.2374V165.922H94.4775V176.104H96.2772V171.629ZM105.261 176.258C106.459 176.258 107.175 175.696 107.503 175.055H107.563V176.104H109.293V170.993C109.293 168.974 107.647 168.368 106.191 168.368C104.585 168.368 103.352 169.084 102.954 170.476L104.634 170.714C104.813 170.192 105.32 169.745 106.2 169.745C107.036 169.745 107.493 170.172 107.493 170.923V170.953C107.493 171.47 106.951 171.495 105.604 171.639C104.122 171.798 102.705 172.241 102.705 173.961C102.705 175.462 103.804 176.258 105.261 176.258ZM105.728 174.935C104.977 174.935 104.441 174.592 104.441 173.931C104.441 173.24 105.042 172.952 105.847 172.837C106.32 172.773 107.264 172.653 107.498 172.464V173.364C107.498 174.214 106.812 174.935 105.728 174.935ZM114.916 168.467H113.409V166.638H111.61V168.467H110.526V169.859H111.61V174.105C111.6 175.542 112.644 176.248 113.996 176.208C114.508 176.193 114.861 176.094 115.055 176.029L114.752 174.622C114.652 174.647 114.448 174.692 114.225 174.692C113.772 174.692 113.409 174.532 113.409 173.807V169.859H114.916V168.467ZM123.274 176.253C125.054 176.253 126.277 175.383 126.595 174.055L124.915 173.866C124.671 174.513 124.075 174.851 123.299 174.851C122.136 174.851 121.365 174.085 121.35 172.778H126.67V172.226C126.67 169.546 125.059 168.368 123.18 168.368C120.992 168.368 119.565 169.974 119.565 172.33C119.565 174.726 120.972 176.253 123.274 176.253ZM121.355 171.564C121.41 170.59 122.131 169.77 123.205 169.77C124.239 169.77 124.935 170.525 124.945 171.564H121.355ZM129.992 171.629C129.992 170.525 130.658 169.889 131.608 169.889C132.537 169.889 133.094 170.501 133.094 171.52V176.104H134.894V171.241C134.899 169.412 133.855 168.368 132.279 168.368C131.135 168.368 130.35 168.915 130.002 169.765H129.912V168.467H128.192V176.104H129.992V171.629ZM138.921 176.258C140.119 176.258 140.835 175.696 141.163 175.055H141.223V176.104H142.953V170.993C142.953 168.974 141.307 168.368 139.851 168.368C138.245 168.368 137.012 169.084 136.614 170.476L138.295 170.714C138.474 170.192 138.981 169.745 139.861 169.745C140.696 169.745 141.153 170.172 141.153 170.923V170.953C141.153 171.47 140.611 171.495 139.264 171.639C137.782 171.798 136.366 172.241 136.366 173.961C136.366 175.462 137.464 176.258 138.921 176.258ZM139.388 174.935C138.638 174.935 138.101 174.592 138.101 173.931C138.101 173.24 138.702 172.952 139.508 172.837C139.98 172.773 140.925 172.653 141.158 172.464V173.364C141.158 174.214 140.472 174.935 139.388 174.935ZM144.842 176.104H146.612V174.9H146.716C147 175.457 147.591 176.238 148.904 176.238C150.704 176.238 152.051 174.811 152.051 172.295C152.051 169.75 150.664 168.368 148.899 168.368C147.552 168.368 146.99 169.178 146.716 169.73H146.642V165.922H144.842V176.104ZM146.607 172.285C146.607 170.804 147.243 169.844 148.402 169.844C149.6 169.844 150.216 170.863 150.216 172.285C150.216 173.717 149.59 174.761 148.402 174.761C147.253 174.761 146.607 173.767 146.607 172.285ZM155.381 165.922H153.581V176.104H155.381V165.922ZM160.612 176.253C162.392 176.253 163.615 175.383 163.933 174.055L162.253 173.866C162.009 174.513 161.412 174.851 160.637 174.851C159.474 174.851 158.703 174.085 158.688 172.778H164.008V172.226C164.008 169.546 162.397 168.368 160.518 168.368C158.33 168.368 156.903 169.974 156.903 172.33C156.903 174.726 158.31 176.253 160.612 176.253ZM158.693 171.564C158.748 170.59 159.469 169.77 160.542 169.77C161.577 169.77 162.273 170.525 162.282 171.564H158.693ZM171.566 170.486C171.317 169.193 170.283 168.368 168.493 168.368C166.654 168.368 165.401 169.273 165.406 170.684C165.401 171.798 166.087 172.534 167.554 172.837L168.856 173.111C169.557 173.265 169.885 173.548 169.885 173.981C169.885 174.503 169.319 174.895 168.463 174.895C167.638 174.895 167.101 174.537 166.947 173.851L165.192 174.02C165.416 175.422 166.594 176.253 168.468 176.253C170.377 176.253 171.725 175.263 171.73 173.817C171.725 172.728 171.024 172.062 169.582 171.748L168.279 171.47C167.504 171.296 167.196 171.028 167.201 170.585C167.196 170.068 167.767 169.71 168.518 169.71C169.348 169.71 169.786 170.162 169.925 170.665L171.566 170.486ZM180.017 176.253C182.255 176.253 183.676 174.677 183.676 172.315C183.676 169.949 182.255 168.368 180.017 168.368C177.78 168.368 176.358 169.949 176.358 172.315C176.358 174.677 177.78 176.253 180.017 176.253ZM180.027 174.811C178.789 174.811 178.183 173.707 178.183 172.31C178.183 170.913 178.789 169.795 180.027 169.795C181.245 169.795 181.852 170.913 181.852 172.31C181.852 173.707 181.245 174.811 180.027 174.811ZM189.072 168.467H187.486V167.866C187.486 167.269 187.735 166.936 188.406 166.936C188.689 166.936 188.928 167.001 189.077 167.045L189.44 165.653C189.206 165.574 188.694 165.444 188.073 165.444C186.745 165.444 185.686 166.205 185.686 167.746V168.467H184.558V169.859H185.686V176.104H187.486V169.859H189.072V168.467ZM195.53 176.104H197.409L198.841 170.943H198.945L200.377 176.104H202.252L204.414 168.467H202.575L201.252 173.807H201.178L199.806 168.467H197.991L196.619 173.836H196.549L195.207 168.467H193.372L195.53 176.104ZM208.797 176.253C211.034 176.253 212.456 174.677 212.456 172.315C212.456 169.949 211.034 168.368 208.797 168.368C206.559 168.368 205.138 169.949 205.138 172.315C205.138 174.677 206.559 176.253 208.797 176.253ZM208.807 174.811C207.569 174.811 206.962 173.707 206.962 172.31C206.962 170.913 207.569 169.795 208.807 169.795C210.025 169.795 210.631 170.913 210.631 172.31C210.631 173.707 210.025 174.811 208.807 174.811ZM213.983 176.104H215.783V171.614C215.783 170.645 216.514 169.959 217.503 169.959C217.806 169.959 218.184 170.013 218.338 170.063V168.407C218.174 168.378 217.891 168.358 217.692 168.358C216.817 168.358 216.086 168.855 215.808 169.74H215.728V168.467H213.983V176.104ZM219.534 176.104H221.334V173.538L221.99 172.837L224.327 176.104H226.479L223.347 171.763L226.305 168.467H224.202L221.458 171.535H221.334V165.922H219.534V176.104ZM28.7244 190.629C28.7244 189.525 29.4105 188.889 30.375 188.889C31.3196 188.889 31.8764 189.491 31.8764 190.52V195.104H33.6761V190.241C33.6761 188.397 32.6321 187.368 31.0462 187.368C29.8729 187.368 29.1271 187.9 28.7741 188.765H28.6847V184.922H26.9247V195.104H28.7244V190.629ZM37.7081 195.258C38.9062 195.258 39.6222 194.696 39.9503 194.055H40.0099V195.104H41.7401V189.993C41.7401 187.974 40.0945 187.368 38.6378 187.368C37.032 187.368 35.799 188.084 35.4013 189.476L37.0817 189.714C37.2607 189.192 37.7678 188.745 38.6477 188.745C39.483 188.745 39.9403 189.172 39.9403 189.923V189.953C39.9403 190.47 39.3984 190.495 38.0511 190.639C36.5696 190.798 35.1527 191.241 35.1527 192.961C35.1527 194.462 36.2514 195.258 37.7081 195.258ZM38.1754 193.935C37.4247 193.935 36.8878 193.592 36.8878 192.931C36.8878 192.24 37.4893 191.952 38.2947 191.837C38.767 191.773 39.7116 191.653 39.9453 191.464V192.364C39.9453 193.214 39.2592 193.935 38.1754 193.935ZM50.0973 187.467H48.1832L46.4233 193.14H46.3438L44.5888 187.467H42.6697L45.3892 195.104H47.3778L50.0973 187.467ZM51.3427 195.104H53.1424V187.467H51.3427V195.104ZM52.2475 186.383C52.8192 186.383 53.2866 185.946 53.2866 185.409C53.2866 184.867 52.8192 184.43 52.2475 184.43C51.6708 184.43 51.2035 184.867 51.2035 185.409C51.2035 185.946 51.6708 186.383 52.2475 186.383ZM56.7928 190.629C56.7928 189.525 57.459 188.889 58.4086 188.889C59.3382 188.889 59.8951 189.501 59.8951 190.52V195.104H61.6948V190.241C61.6998 188.412 60.6557 187.368 59.0797 187.368C57.9363 187.368 57.1507 187.915 56.8027 188.765H56.7132V187.467H54.9931V195.104H56.7928V190.629ZM66.8453 198.126C68.9086 198.126 70.4299 197.182 70.4299 195.228V187.467H68.655V188.73H68.5556C68.2821 188.178 67.7104 187.368 66.3631 187.368C64.5982 187.368 63.2111 188.75 63.2111 191.26C63.2111 193.751 64.5982 194.994 66.3581 194.994C67.6657 194.994 68.2772 194.293 68.5556 193.731H68.6451V195.178C68.6451 196.302 67.8993 196.764 66.8752 196.764C65.7914 196.764 65.3141 196.252 65.0953 195.805L63.4746 196.197C63.8027 197.266 64.9015 198.126 66.8453 198.126ZM66.8603 193.582C65.6721 193.582 65.0456 192.657 65.0456 191.251C65.0456 189.863 65.6621 188.844 66.8603 188.844C68.0186 188.844 68.655 189.804 68.655 191.251C68.655 192.707 68.0087 193.582 66.8603 193.582ZM79.5602 187.467H78.0538V185.638H76.2541V187.467H75.1703V188.859H76.2541V193.105C76.2441 194.542 77.2882 195.248 78.6404 195.208C79.1525 195.193 79.5055 195.094 79.6994 195.029L79.3961 193.622C79.2967 193.647 79.0929 193.692 78.8691 193.692C78.4167 193.692 78.0538 193.532 78.0538 192.807V188.859H79.5602V187.467ZM84.3143 195.253C86.5515 195.253 87.9734 193.677 87.9734 191.315C87.9734 188.949 86.5515 187.368 84.3143 187.368C82.0771 187.368 80.6552 188.949 80.6552 191.315C80.6552 193.677 82.0771 195.253 84.3143 195.253ZM84.3242 193.811C83.0863 193.811 82.4798 192.707 82.4798 191.31C82.4798 189.913 83.0863 188.795 84.3242 188.795C85.5423 188.795 86.1488 189.913 86.1488 191.31C86.1488 192.707 85.5423 193.811 84.3242 193.811ZM93.0531 195.104H94.823V193.9H94.9274C95.2108 194.457 95.8024 195.238 97.1149 195.238C98.9146 195.238 100.262 193.811 100.262 191.295C100.262 188.75 98.8748 187.368 97.1099 187.368C95.7626 187.368 95.2008 188.178 94.9274 188.73H94.8528V184.922H93.0531V195.104ZM94.818 191.285C94.818 189.804 95.4544 188.844 96.6127 188.844C97.8109 188.844 98.4274 189.863 98.4274 191.285C98.4274 192.717 97.801 193.761 96.6127 193.761C95.4643 193.761 94.818 192.767 94.818 191.285ZM105.173 195.253C106.952 195.253 108.175 194.383 108.494 193.055L106.813 192.866C106.57 193.513 105.973 193.851 105.197 193.851C104.034 193.851 103.263 193.085 103.249 191.778H108.568V191.226C108.568 188.546 106.957 187.368 105.078 187.368C102.891 187.368 101.464 188.974 101.464 191.33C101.464 193.726 102.871 195.253 105.173 195.253ZM103.254 190.564C103.308 189.59 104.029 188.77 105.103 188.77C106.137 188.77 106.833 189.525 106.843 190.564H103.254ZM116.894 195.253C118.813 195.253 120.036 194.114 120.166 192.493H118.445C118.291 193.314 117.7 193.786 116.909 193.786C115.786 193.786 115.06 192.846 115.06 191.285C115.06 189.744 115.801 188.819 116.909 188.819C117.774 188.819 118.306 189.376 118.445 190.112H120.166C120.041 188.456 118.749 187.368 116.884 187.368C114.647 187.368 113.235 188.983 113.235 191.315C113.235 193.627 114.612 195.253 116.894 195.253ZM124.974 195.253C127.212 195.253 128.634 193.677 128.634 191.315C128.634 188.949 127.212 187.368 124.974 187.368C122.737 187.368 121.315 188.949 121.315 191.315C121.315 193.677 122.737 195.253 124.974 195.253ZM124.984 193.811C123.746 193.811 123.14 192.707 123.14 191.31C123.14 189.913 123.746 188.795 124.984 188.795C126.202 188.795 126.809 189.913 126.809 191.31C126.809 192.707 126.202 193.811 124.984 193.811ZM130.161 195.104H131.961V190.46C131.961 189.52 132.587 188.884 133.363 188.884C134.123 188.884 134.645 189.396 134.645 190.182V195.104H136.41V190.341C136.41 189.481 136.922 188.884 137.792 188.884C138.518 188.884 139.095 189.312 139.095 190.256V195.104H140.9V189.978C140.9 188.273 139.915 187.368 138.513 187.368C137.405 187.368 136.559 187.915 136.221 188.765H136.142C135.849 187.9 135.108 187.368 134.079 187.368C133.055 187.368 132.289 187.895 131.971 188.765H131.881V187.467H130.161V195.104ZM142.725 197.967H144.525V193.9H144.6C144.883 194.457 145.475 195.238 146.787 195.238C148.587 195.238 149.934 193.811 149.934 191.295C149.934 188.75 148.547 187.368 146.782 187.368C145.435 187.368 144.873 188.178 144.6 188.73H144.495V187.467H142.725V197.967ZM144.49 191.285C144.49 189.804 145.127 188.844 146.285 188.844C147.483 188.844 148.1 189.863 148.1 191.285C148.1 192.717 147.473 193.761 146.285 193.761C145.137 193.761 144.49 192.767 144.49 191.285ZM153.275 184.922H151.475V195.104H153.275V184.922ZM158.507 195.253C160.286 195.253 161.509 194.383 161.828 193.055L160.147 192.866C159.904 193.513 159.307 193.851 158.531 193.851C157.368 193.851 156.597 193.085 156.583 191.778H161.902V191.226C161.902 188.546 160.291 187.368 158.412 187.368C156.225 187.368 154.798 188.974 154.798 191.33C154.798 193.726 156.205 195.253 158.507 195.253ZM156.588 190.564C156.642 189.59 157.363 188.77 158.437 188.77C159.471 188.77 160.167 189.525 160.177 190.564H156.588ZM167.238 187.467H165.732V185.638H163.932V187.467H162.848V188.859H163.932V193.105C163.922 194.542 164.966 195.248 166.318 195.208C166.83 195.193 167.183 195.094 167.377 195.029L167.074 193.622C166.974 193.647 166.771 193.692 166.547 193.692C166.094 193.692 165.732 193.532 165.732 192.807V188.859H167.238V187.467ZM172.042 195.253C173.822 195.253 175.045 194.383 175.363 193.055L173.682 192.866C173.439 193.513 172.842 193.851 172.067 193.851C170.903 193.851 170.133 193.085 170.118 191.778H175.437V191.226C175.437 188.546 173.827 187.368 171.947 187.368C169.76 187.368 168.333 188.974 168.333 191.33C168.333 193.726 169.74 195.253 172.042 195.253ZM170.123 190.564C170.177 189.59 170.898 188.77 171.972 188.77C173.006 188.77 173.702 189.525 173.712 190.564H170.123ZM178.76 184.922H176.96V195.104H178.76V184.922ZM181.729 197.967C183.131 197.967 183.941 197.246 184.374 196.028L187.441 187.477L185.517 187.467L183.752 193.234H183.673L181.913 187.467H180.004L182.773 195.263L182.619 195.675C182.286 196.545 181.759 196.605 180.973 196.376L180.556 197.778C180.799 197.878 181.237 197.967 181.729 197.967ZM192.163 195.104H193.963V190.614C193.963 189.645 194.694 188.959 195.683 188.959C195.986 188.959 196.364 189.013 196.518 189.063V187.407C196.354 187.378 196.071 187.358 195.872 187.358C194.997 187.358 194.266 187.855 193.988 188.74H193.908V187.467H192.163V195.104ZM200.78 195.253C202.56 195.253 203.783 194.383 204.101 193.055L202.421 192.866C202.177 193.513 201.58 193.851 200.805 193.851C199.642 193.851 198.871 193.085 198.856 191.778H204.176V191.226C204.176 188.546 202.565 187.368 200.686 187.368C198.498 187.368 197.071 188.974 197.071 191.33C197.071 193.726 198.478 195.253 200.78 195.253ZM198.861 190.564C198.916 189.59 199.637 188.77 200.71 188.77C201.744 188.77 202.441 189.525 202.45 190.564H198.861ZM208.532 195.238C209.844 195.238 210.436 194.457 210.719 193.9H210.829V195.104H212.599V184.922H210.794V188.73H210.719C210.446 188.178 209.884 187.368 208.537 187.368C206.772 187.368 205.385 188.75 205.385 191.295C205.385 193.811 206.732 195.238 208.532 195.238ZM209.034 193.761C207.846 193.761 207.219 192.717 207.219 191.285C207.219 189.863 207.836 188.844 209.034 188.844C210.192 188.844 210.829 189.804 210.829 191.285C210.829 192.767 210.183 193.761 209.034 193.761ZM217.847 195.253C220.085 195.253 221.507 193.677 221.507 191.315C221.507 188.949 220.085 187.368 217.847 187.368C215.61 187.368 214.188 188.949 214.188 191.315C214.188 193.677 215.61 195.253 217.847 195.253ZM217.857 193.811C216.619 193.811 216.013 192.707 216.013 191.31C216.013 189.913 216.619 188.795 217.857 188.795C219.075 188.795 219.682 189.913 219.682 191.31C219.682 192.707 219.075 193.811 217.857 193.811ZM224.834 190.629C224.834 189.525 225.5 188.889 226.45 188.889C227.379 188.889 227.936 189.501 227.936 190.52V195.104H229.736V190.241C229.741 188.412 228.697 187.368 227.121 187.368C225.977 187.368 225.192 187.915 224.844 188.765H224.754V187.467H223.034V195.104H224.834V190.629ZM234.946 195.253C236.726 195.253 237.949 194.383 238.267 193.055L236.587 192.866C236.343 193.513 235.746 193.851 234.971 193.851C233.808 193.851 233.037 193.085 233.022 191.778H238.342V191.226C238.342 188.546 236.731 187.368 234.852 187.368C232.664 187.368 231.237 188.974 231.237 191.33C231.237 193.726 232.644 195.253 234.946 195.253ZM233.027 190.564C233.082 189.59 233.803 188.77 234.876 188.77C235.911 188.77 236.607 189.525 236.616 190.564H233.027ZM240.973 195.213C241.559 195.213 242.062 194.726 242.067 194.119C242.062 193.523 241.559 193.035 240.973 193.035C240.366 193.035 239.874 193.523 239.879 194.119C239.874 194.726 240.366 195.213 240.973 195.213Z" fill="#081729"/>
<path fill-rule="evenodd" clip-rule="evenodd" d="M353 291.104C388.899 291.104 418 262.002 418 226.104C418 190.205 388.899 161.104 353 161.104C317.101 161.104 288 190.205 288 226.104C288 262.002 317.101 291.104 353 291.104Z" stroke="#E1E9F0" stroke-width="2"/>
<path d="M337.355 233.676C337.88 233.676 338.288 233.822 338.58 234.114C338.883 234.405 339.035 234.79 339.035 235.269V238.104H321.43V236.529C321.43 236.225 321.494 235.899 321.622 235.549C321.751 235.187 321.966 234.86 322.27 234.569L329.795 227.026C330.436 226.384 331.002 225.772 331.492 225.189C331.982 224.594 332.391 224.016 332.717 223.456C333.044 222.884 333.289 222.307 333.452 221.724C333.616 221.14 333.697 220.528 333.697 219.886C333.697 218.754 333.406 217.897 332.822 217.314C332.239 216.719 331.416 216.421 330.355 216.421C329.888 216.421 329.456 216.491 329.06 216.631C328.675 216.759 328.325 216.94 328.01 217.174C327.706 217.407 327.444 217.681 327.222 217.996C327.001 218.311 326.837 218.655 326.732 219.029C326.522 219.612 326.236 220.003 325.875 220.201C325.525 220.388 325.023 220.429 324.37 220.324L321.815 219.869C322.001 218.632 322.351 217.547 322.865 216.614C323.378 215.68 324.02 214.904 324.79 214.286C325.56 213.668 326.441 213.207 327.432 212.904C328.424 212.589 329.491 212.431 330.635 212.431C331.836 212.431 332.927 212.612 333.907 212.974C334.899 213.324 335.745 213.819 336.445 214.461C337.145 215.091 337.687 215.855 338.072 216.754C338.457 217.652 338.65 218.644 338.65 219.729C338.65 220.662 338.516 221.525 338.247 222.319C337.979 223.112 337.611 223.87 337.145 224.594C336.69 225.305 336.159 225.999 335.552 226.676C334.946 227.353 334.304 228.035 333.627 228.724L328.237 234.236C328.832 234.061 329.421 233.927 330.005 233.834C330.588 233.729 331.136 233.676 331.65 233.676H337.355Z" fill="#0E1B47"/>
<path d="M347.927 221.811C348.452 221.706 348.954 221.63 349.432 221.584C349.922 221.537 350.395 221.514 350.85 221.514C352.18 221.514 353.352 221.718 354.367 222.126C355.394 222.523 356.252 223.071 356.94 223.771C357.64 224.471 358.165 225.294 358.515 226.239C358.865 227.184 359.04 228.199 359.04 229.284C359.04 230.637 358.801 231.874 358.322 232.994C357.844 234.102 357.179 235.059 356.327 235.864C355.487 236.657 354.478 237.275 353.3 237.719C352.133 238.162 350.856 238.384 349.467 238.384C348.662 238.384 347.892 238.296 347.157 238.121C346.422 237.958 345.734 237.736 345.092 237.456C344.462 237.164 343.873 236.832 343.325 236.459C342.777 236.085 342.287 235.694 341.855 235.286L343.342 233.256C343.657 232.824 344.066 232.609 344.567 232.609C344.882 232.609 345.192 232.702 345.495 232.889C345.798 233.075 346.142 233.285 346.527 233.519C346.912 233.74 347.362 233.944 347.875 234.131C348.388 234.318 349.012 234.411 349.747 234.411C350.506 234.411 351.165 234.289 351.725 234.044C352.285 233.787 352.746 233.443 353.107 233.011C353.481 232.568 353.755 232.049 353.93 231.454C354.117 230.847 354.21 230.199 354.21 229.511C354.21 228.193 353.831 227.178 353.072 226.466C352.326 225.743 351.235 225.381 349.8 225.381C348.622 225.381 347.437 225.603 346.247 226.046L343.255 225.206L345.39 212.711H358.13V214.741C358.13 215.079 358.077 215.389 357.972 215.669C357.879 215.937 357.716 216.176 357.482 216.386C357.261 216.584 356.969 216.742 356.607 216.859C356.257 216.964 355.826 217.016 355.312 217.016H348.75L347.927 221.811Z" fill="#0E1B47"/>
<path d="M374.04 218.854C374.04 219.799 373.877 220.656 373.55 221.426C373.223 222.196 372.78 222.861 372.22 223.421C371.672 223.969 371.036 224.395 370.313 224.699C369.589 224.99 368.837 225.136 368.055 225.136C367.192 225.136 366.398 224.99 365.675 224.699C364.952 224.395 364.322 223.969 363.785 223.421C363.26 222.861 362.846 222.196 362.543 221.426C362.251 220.656 362.105 219.799 362.105 218.854C362.105 217.874 362.251 216.993 362.543 216.211C362.846 215.418 363.26 214.747 363.785 214.199C364.322 213.639 364.952 213.207 365.675 212.904C366.398 212.6 367.192 212.449 368.055 212.449C368.918 212.449 369.718 212.6 370.453 212.904C371.188 213.207 371.818 213.639 372.343 214.199C372.879 214.747 373.293 215.418 373.585 216.211C373.888 216.993 374.04 217.874 374.04 218.854ZM370.33 218.854C370.33 218.224 370.272 217.699 370.155 217.279C370.038 216.847 369.875 216.503 369.665 216.246C369.467 215.989 369.228 215.809 368.948 215.704C368.668 215.587 368.37 215.529 368.055 215.529C367.74 215.529 367.443 215.587 367.163 215.704C366.894 215.809 366.661 215.989 366.463 216.246C366.276 216.503 366.124 216.847 366.008 217.279C365.903 217.699 365.85 218.224 365.85 218.854C365.85 219.472 365.903 219.985 366.008 220.394C366.124 220.802 366.276 221.134 366.463 221.391C366.661 221.636 366.894 221.811 367.163 221.916C367.443 222.021 367.74 222.074 368.055 222.074C368.37 222.074 368.668 222.021 368.948 221.916C369.228 221.811 369.467 221.636 369.665 221.391C369.875 221.134 370.038 220.802 370.155 220.394C370.272 219.985 370.33 219.472 370.33 218.854ZM382.265 213.446C382.428 213.259 382.621 213.09 382.843 212.939C383.076 212.787 383.397 212.711 383.805 212.711H387.323L368.335 237.404C368.172 237.602 367.973 237.771 367.74 237.911C367.507 238.039 367.221 238.104 366.883 238.104H363.295L382.265 213.446ZM388.495 232.136C388.495 233.081 388.332 233.939 388.005 234.709C387.678 235.479 387.235 236.144 386.675 236.704C386.127 237.252 385.491 237.678 384.768 237.981C384.044 238.273 383.292 238.419 382.51 238.419C381.647 238.419 380.853 238.273 380.13 237.981C379.407 237.678 378.777 237.252 378.24 236.704C377.715 236.144 377.301 235.479 376.998 234.709C376.706 233.939 376.56 233.081 376.56 232.136C376.56 231.156 376.706 230.275 376.998 229.494C377.301 228.7 377.715 228.029 378.24 227.481C378.777 226.921 379.407 226.495 380.13 226.204C380.853 225.9 381.647 225.749 382.51 225.749C383.373 225.749 384.173 225.9 384.908 226.204C385.643 226.495 386.273 226.921 386.798 227.481C387.334 228.029 387.748 228.7 388.04 229.494C388.343 230.275 388.495 231.156 388.495 232.136ZM384.785 232.136C384.785 231.506 384.727 230.981 384.61 230.561C384.493 230.129 384.33 229.785 384.12 229.529C383.922 229.272 383.683 229.091 383.403 228.986C383.123 228.869 382.825 228.811 382.51 228.811C382.195 228.811 381.898 228.869 381.618 228.986C381.349 229.091 381.116 229.272 380.918 229.529C380.731 229.785 380.579 230.129 380.463 230.561C380.358 230.981 380.305 231.506 380.305 232.136C380.305 232.754 380.358 233.268 380.463 233.676C380.579 234.084 380.731 234.417 380.918 234.674C381.116 234.919 381.349 235.094 381.618 235.199C381.898 235.304 382.195 235.356 382.51 235.356C382.825 235.356 383.123 235.304 383.403 235.199C383.683 235.094 383.922 234.919 384.12 234.674C384.33 234.417 384.493 234.084 384.61 233.676C384.727 233.268 384.785 232.754 384.785 232.136Z" fill="#0E1B47"/>
<path d="M418 226.104C418 190.205 388.899 161.104 353 161.104" stroke="#0E1B47" stroke-width="4"/>
</g>
<defs>
<linearGradient id="paint0_linear" x1="60" y1="250.104" x2="495" y2="250.104" gradientUnits="userSpaceOnUse">
<stop stop-color="#F09819"/>
<stop offset="1" stop-color="#EDDE5D"/>
</linearGradient>
<clipPath id="clip0">
<rect width="440" height="210" fill="white" transform="translate(125 161.104)"/>
</clipPath>
<clipPath id="clip1">
<rect width="440" height="210" fill="white" transform="translate(8 121.104)"/>
</clipPath>
</defs>
</svg>
